<svg width="242" height="112" viewBox="0 0 242 112" xmlns="http://www.w3.org/2000/svg" xmlns:xlink="http://www.w3.org/1999/xlink"><title>Group</title><defs><path id="a" d="M0 0h221v90H0z"/></defs><g fill="none" fill-rule="evenodd"><g opacity=".1" transform="translate(19 2)"><use stroke="#7289DA" stroke-width="2" xlink:href="#a"/><use xlink:href="#a"/><use fill-opacity=".3" fill="#7289DA" xlink:href="#a"/></g><path d="M60.18 33.203H49.373v12.122l7.195 6.468V40.028h3.84c2.443 0 3.647 1.17 3.647 3.055v9.002c0 1.885-1.14 3.153-3.646 3.153H49.34v6.858h10.808c5.795.032 11.23-2.86 11.23-9.49V42.92c.034-6.76-5.403-9.717-11.197-9.717zm56.645 19.402V42.66c0-3.575 6.446-4.387 8.4-.812l5.957-2.405c-2.344-5.135-6.61-6.63-10.157-6.63-5.795 0-11.525 3.347-11.525 9.847v9.945c0 6.566 5.73 9.848 11.394 9.848 3.646 0 8.01-1.787 10.418-6.467l-6.38-2.926c-1.564 3.998-8.107 3.023-8.107-.455zm-19.695-8.58c-2.247-.487-3.744-1.3-3.842-2.697.13-3.348 5.307-3.478 8.334-.26l4.786-3.673c-2.995-3.64-6.38-4.615-9.864-4.615-5.307 0-10.45 2.99-10.45 8.645 0 5.493 4.232 8.45 8.887 9.165 2.378.325 5.014 1.268 4.95 2.893-.196 3.088-6.577 2.925-9.474-.585l-4.623 4.323c2.702 3.478 6.38 5.233 9.832 5.233 5.306 0 11.198-3.055 11.426-8.645.327-7.053-4.817-8.84-9.96-9.783zM75.318 62.063h7.292v-28.86h-7.292v28.86zm122.958-28.86h-10.808v12.122l7.194 6.468V40.028h3.842c2.44 0 3.646 1.17 3.646 3.055v9.002c0 1.885-1.14 3.153-3.646 3.153h-11.07v6.858h10.842c5.795.032 11.23-2.86 11.23-9.49V42.92c0-6.76-5.435-9.717-11.23-9.717zm-53.03-.39c-5.99 0-11.948 3.25-11.948 9.912v9.848c0 6.598 5.99 9.913 12.012 9.913 5.99 0 11.948-3.315 11.948-9.913v-9.848c0-6.63-6.023-9.912-12.013-9.912zm4.687 19.76c0 2.08-2.344 3.153-4.655 3.153-2.344 0-4.688-1.008-4.688-3.153v-9.848c0-2.112 2.28-3.25 4.557-3.25 2.377 0 4.786 1.008 4.786 3.25v9.848zm33.498-9.848c-.162-6.76-4.784-9.49-10.742-9.49H161.13v28.86h7.39V52.93h1.303l6.707 9.166h9.115l-7.878-9.913c3.483-1.105 5.664-4.128 5.664-9.458zm-10.612 3.9h-4.297v-6.597h4.298c4.59 0 4.59 6.597 0 6.597z" fill="#FFF"/><path opacity=".1" fill="#7289DA" d="M47 2h2v90h-2zM210 2h2v90h-2zM49 31h161v2H49zM19 31h28v2H19zM212 31h28v2h-28zM49 62h161v2H49zM19 62h28v2H19zM212 62h28v2h-28z"/><path fill="#7289DA" d="M13 31h4v33h-4z"/><path d="M3.89 14.62l-1.82-3.17h1.11l.85 1.56.24.46.27.52h.04c.093-.193.175-.367.245-.52.07-.153.145-.307.225-.46l.82-1.56h1.06l-1.82 3.22L7.05 18h-1.1l-.92-1.65c-.093-.167-.185-.335-.275-.505-.09-.17-.185-.355-.285-.555h-.04c-.093.2-.183.385-.27.555l-.26.505L3 18H1.95l1.94-3.38zM3.89 78.62l-1.82-3.17h1.11l.85 1.56.24.46.27.52h.04c.093-.193.175-.367.245-.52.07-.153.145-.307.225-.46l.82-1.56h1.06l-1.82 3.22L7.05 82h-1.1l-.92-1.65c-.093-.167-.185-.335-.275-.505-.09-.17-.185-.355-.285-.555h-.04c-.093.2-.183.385-.27.555l-.26.505L3 82H1.95l1.94-3.38zM30.89 104.62l-1.82-3.17h1.11l.85 1.56.24.46.27.52h.04c.093-.193.175-.367.245-.52.07-.153.145-.307.225-.46l.82-1.56h1.06l-1.82 3.22 1.94 3.33h-1.1l-.92-1.65c-.093-.167-.185-.335-.275-.505-.09-.17-.185-.355-.285-.555h-.04c-.093.2-.183.385-.27.555l-.26.505L30 108h-1.05l1.94-3.38zM225.89 108.62l-1.82-3.17h1.11l.85 1.56.24.46.27.52h.04c.093-.193.175-.367.245-.52.07-.153.145-.307.225-.46l.82-1.56h1.06l-1.82 3.22 1.94 3.33h-1.1l-.92-1.65c-.093-.167-.185-.335-.275-.505-.09-.17-.185-.355-.285-.555h-.04c-.093.2-.183.385-.27.555l-.26.505-.9 1.65h-1.05l1.94-3.38z" opacity=".5" fill="#7289DA"/><path d="M2.712 50.31L.206 45.872h2.31l.882 1.722c.103.215.21.44.322.68.112.237.238.5.378.79h.056c.112-.29.217-.553.315-.79.097-.24.197-.465.3-.68l.812-1.722h2.212l-2.506 4.536L7.948 55H5.652l-.994-1.862c-.13-.243-.252-.483-.364-.72l-.364-.778h-.056c-.112.28-.224.54-.336.777l-.336.72L2.25 55H.052l2.66-4.69z" fill="#7289DA"/></g></svg>
