<svg xmlns="http://www.w3.org/2000/svg" xmlns:xlink="http://www.w3.org/1999/xlink" width="140" height="96" viewBox="0 0 140 96">
  <defs>
    <polygon id="a" points=".942 .4 2.873 .4 2.873 2.558 .942 2.558 .942 .4"/>
  </defs>
  <g fill="none" fill-rule="evenodd">
    <g transform="translate(1 10)">
      <path fill="#F6F6F7" fill-opacity=".9" d="M83.1833,10.0305 L21.7203,10.0305 C17.6633,10.0305 14.3743,13.3195 14.3743,17.3765 C14.3743,21.4335 17.6633,24.7215 21.7203,24.7215 L33.9913,24.7215 C36.3093,24.7215 38.1883,26.6015 38.1883,28.9195 L38.1883,28.9215 C38.1883,31.2395 36.3093,33.1185 33.9913,33.1185 L7.1123,33.1185 C3.8123,33.1185 1.1373,35.7935 1.1373,39.0935 C1.1373,42.3935 3.8123,45.0685 7.1123,45.0685 L36.8973,45.0685 C41.1643,45.0685 44.6233,48.5275 44.6233,52.7945 C44.6233,57.0615 41.1643,60.5205 36.8973,60.5205 L27.8883,60.5205 C24.7253,60.5205 22.1623,63.0835 22.1623,66.2455 C22.1623,69.4085 24.7253,71.9715 27.8883,71.9715 L91.7673,71.9715"/>
      <path fill="#7687B2" d="M102.2092,55.84 C99.5762,57.049 96.7722,57.657 93.9582,57.657 C91.6372,57.657 89.3102,57.243 87.0682,56.412 C82.1102,54.574 78.1642,50.915 75.9572,46.109 C71.4022,36.187 75.7662,24.407 85.6862,19.851 C90.4922,17.644 95.8692,17.441 100.8272,19.278 C105.7852,21.116 109.7312,24.776 111.9382,29.582 C116.4932,39.504 112.1292,51.283 102.2092,55.84 M82.9312,13.856 C69.6822,19.94 63.8742,35.613 69.9582,48.861 C76.0422,62.111 91.7152,67.919 104.9642,61.835 C118.2122,55.75 124.0212,40.078 117.9372,26.829 C111.8532,13.58 96.1802,7.772 82.9312,13.856"/>
      <path fill="#B9BBBE" d="M27.7507 61.5202L36.7597 61.5202C41.5717 61.5202 45.4857 57.6052 45.4857 52.7942 45.4857 47.9822 41.5717 44.0682 36.7597 44.0682L6.9747 44.0682C4.2317 44.0682 2.0007 41.8362 2.0007 39.0932 2.0007 36.3502 4.2317 34.1182 6.9747 34.1182L33.8537 34.1182C36.7197 34.1182 39.0507 31.7862 39.0507 28.9192 39.0507 28.0992 38.8427 27.3342 38.5037 26.6442 38.0607 27.1762 37.5097 27.6142 36.8677 27.8972 36.9777 28.2212 37.0507 28.5612 37.0507 28.9212 37.0507 30.6842 35.6167 32.1182 33.8537 32.1182L6.9747 32.1182C3.1287 32.1182.0007 35.2472.0007 39.0932.0007 42.9392 3.1287 46.0682 6.9747 46.0682L36.7597 46.0682C40.4687 46.0682 43.4857 49.0852 43.4857 52.7942 43.4857 56.5032 40.4687 59.5202 36.7597 59.5202L27.7507 59.5202C24.0417 59.5202 21.0247 62.5372 21.0247 66.2462 21.0247 69.9552 24.0417 72.9722 27.7507 72.9722L38.8717 72.9722C39.4237 72.9722 39.8717 72.5242 39.8717 71.9722 39.8717 71.4192 39.4237 70.9722 38.8717 70.9722L27.7507 70.9722C25.1447 70.9722 23.0247 68.8522 23.0247 66.2462 23.0247 63.6402 25.1447 61.5202 27.7507 61.5202M21.5832 9.0305C16.9812 9.0305 13.2372 12.7745 13.2372 17.3765 13.2372 21.9785 16.9812 25.7215 21.5832 25.7215 22.1352 25.7215 22.5832 25.2745 22.5832 24.7215 22.5832 24.1695 22.1352 23.7215 21.5832 23.7215 18.0832 23.7215 15.2372 20.8755 15.2372 17.3765 15.2372 13.8775 18.0832 11.0305 21.5832 11.0305L52.7782 11.0305C52.4112 10.4195 52.1362 9.7485 51.9812 9.0305L21.5832 9.0305z"/>
      <path fill="#7289DA" d="M37.5612,23.7775 C37.5612,22.3935 36.4362,21.2685 35.0522,21.2685 L33.2402,21.2685 C31.8572,21.2685 30.7312,22.3935 30.7312,23.7775 C30.7312,25.1605 31.8572,26.2865 33.2402,26.2865 L35.0522,26.2865 C36.4362,26.2865 37.5612,25.1605 37.5612,23.7775"/>
      <path fill="#4F5D7F" d="M103.9489,59.6247 C91.9209,65.1477 77.6919,59.8747 72.1679,47.8467 C66.6449,35.8187 71.9179,21.5897 83.9459,16.0657 C95.9739,10.5427 110.2029,15.8157 115.7269,27.8437 C121.2499,39.8727 115.9769,54.1007 103.9489,59.6247 M125.5499,23.2927 C120.0599,11.3387 108.4719,3.5857 95.3059,3.0597 C95.2259,3.0567 95.1469,3.0427 95.0719,3.0217 L58.4449,3.0217 C55.8999,3.0217 53.8299,5.0917 53.8299,7.6357 C53.8299,10.1807 55.8999,12.2497 58.4449,12.2497 L67.8859,12.2497 C67.9209,12.2497 67.9559,12.2517 67.9909,12.2557 C70.4249,12.3117 72.3959,14.3207 72.3959,16.7597 C72.3959,19.2457 70.3729,21.2687 67.8859,21.2687 L48.5899,21.2687 C47.2069,21.2687 46.0809,22.3937 46.0809,23.7777 C46.0809,25.1607 47.2069,26.2867 48.5899,26.2867 L61.5709,26.2867 C64.0569,26.2867 66.0789,28.3097 66.0789,30.7957 C66.0789,33.2817 64.0569,35.3047 61.5709,35.3047 L55.8459,35.3047 C54.4629,35.3047 53.3379,36.4297 53.3379,37.8137 C53.3379,39.1967 54.4629,40.3227 55.8459,40.3227 L58.3459,40.3227 C58.8609,40.3227 59.2909,40.7127 59.3419,41.2247 C59.7209,45.0727 60.7319,48.8047 62.3449,52.3177 C66.2219,60.7587 73.1529,67.1857 81.8639,70.4137 C90.5729,73.6407 100.0189,73.2847 108.4599,69.4077 C125.8859,61.4057 133.5519,40.7187 125.5499,23.2927"/>
      <path fill="#EBEFF7" d="M110.1208,30.4162 C108.1368,26.0952 104.5898,22.8062 100.1318,21.1532 C98.1168,20.4072 96.0248,20.0352 93.9378,20.0352 C91.4088,20.0352 88.8878,20.5812 86.5208,21.6682 C77.6028,25.7642 73.6798,36.3542 77.7748,45.2742 C79.7588,49.5952 83.3058,52.8852 87.7638,54.5372 C92.2228,56.1892 97.0548,56.0072 101.3738,54.0222 C110.2918,49.9262 114.2158,39.3362 110.1208,30.4162"/>
      <g transform="translate(135 .6)">
        <mask id="b" fill="white">
          <use xlink:href="#a"/>
        </mask>
        <path fill="#B9BBBE" d="M1.4416,2.5581 C1.5876,2.5581 1.7336,2.4941 1.8316,2.3711 L2.7626,1.2121 C2.9356,0.9971 2.9016,0.6831 2.6866,0.5101 C2.4716,0.3371 2.1566,0.3711 1.9836,0.5861 L1.0526,1.7451 C0.8796,1.9601 0.9136,2.2751 1.1296,2.4481 C1.2216,2.5221 1.3316,2.5581 1.4416,2.5581" mask="url(#b)"/>
      </g>
      <path fill="#B9BBBE" d="M132.2975 6.028L131.3665 7.187C131.1935 7.402 131.2275 7.716 131.4435 7.889 131.5355 7.964 131.6455 8 131.7555 8 131.9015 8 132.0475 7.936 132.1455 7.813L133.0765 6.654C133.2495 6.439 133.2155 6.124 133.0005 5.951 132.7855 5.779 132.4705 5.813 132.2975 6.028M137.9352 7.0173L136.9302 5.9073C136.7442 5.7023 136.4282 5.6873 136.2242 5.8723 136.0182 6.0583 136.0032 6.3733 136.1882 6.5783L137.1942 7.6883C137.2922 7.7973 137.4282 7.8523 137.5642 7.8523 137.6842 7.8523 137.8042 7.8093 137.9002 7.7233 138.1052 7.5383 138.1212 7.2223 137.9352 7.0173M132.57 3.2565C132.69 3.2565 132.81 3.2135 132.905 3.1275 133.111 2.9415 133.126 2.6255 132.941 2.4215L131.935 1.3115C131.75 1.1055 131.434 1.0915 131.229 1.2765 131.024 1.4615 131.008 1.7775 131.194 1.9825L132.199 3.0915C132.298 3.2015 132.434 3.2565 132.57 3.2565M53.5212 66.6936C52.4532 66.6936 51.5842 65.8246 51.5842 64.7566 51.5842 63.6886 52.4532 62.8196 53.5212 62.8196 54.5892 62.8196 55.4582 63.6886 55.4582 64.7566 55.4582 65.8246 54.5892 66.6936 53.5212 66.6936M53.5212 61.8196C51.9012 61.8196 50.5832 63.1366 50.5832 64.7566 50.5832 66.3766 51.9012 67.6936 53.5212 67.6936 55.1412 67.6936 56.4582 66.3766 56.4582 64.7566 56.4582 63.1366 55.1412 61.8196 53.5212 61.8196M35.5436 49.656C35.2676 49.656 35.0436 49.88 35.0436 50.156L35.0436 50.156C35.0436 51.226 34.1766 52.094 33.1066 52.094L33.1056 52.094C32.8296 52.094 32.6056 52.317 32.6056 52.594 32.6056 52.87 32.8296 53.094 33.1056 53.094L33.1066 53.094C34.1766 53.094 35.0436 53.961 35.0436 55.031 35.0436 55.307 35.2676 55.531 35.5436 55.531 35.8196 55.531 36.0436 55.307 36.0436 55.031 36.0436 53.961 36.9106 53.094 37.9806 53.094 38.2566 53.094 38.4806 52.87 38.4806 52.594 38.4806 52.317 38.2566 52.094 37.9806 52.094 36.9106 52.094 36.0436 51.226 36.0436 50.156L36.0436 50.156C36.0436 49.88 35.8196 49.656 35.5436 49.656M46.0837 70.9719L44.1607 70.9719C43.6077 70.9719 43.1607 71.4199 43.1607 71.9719 43.1607 72.5239 43.6077 72.9719 44.1607 72.9719L46.0837 72.9719C46.6357 72.9719 47.0837 72.5239 47.0837 71.9719 47.0837 71.4199 46.6357 70.9719 46.0837 70.9719"/>
      <path fill="#040405" d="M35.0524 26.2863L33.2404 26.2863C31.8574 26.2863 30.7314 25.1613 30.7314 23.7773 30.7314 22.3933 31.8574 21.2683 33.2404 21.2683L35.0524 21.2683C36.4354 21.2683 37.5614 22.3933 37.5614 23.7773 37.5614 25.1613 36.4354 26.2863 35.0524 26.2863M35.0524 19.2683L33.2404 19.2683C30.7544 19.2683 28.7314 21.2913 28.7314 23.7773 28.7314 26.2643 30.7544 28.2863 33.2404 28.2863L35.0524 28.2863C35.6984 28.2863 36.3114 28.1443 36.8674 27.8973 37.5094 27.6143 38.0604 27.1763 38.5034 26.6433 39.1544 25.8623 39.5614 24.8713 39.5614 23.7773 39.5614 21.2913 37.5384 19.2683 35.0524 19.2683M108.4601 69.4079C100.0191 73.2839 90.5721 73.6409 81.8631 70.4139 73.1531 67.1859 66.2221 60.7589 62.3451 52.3179 60.7321 48.8049 59.7211 45.0729 59.3411 41.2239 59.2911 40.7129 58.8601 40.3229 58.3461 40.3229L55.8461 40.3229C54.4631 40.3229 53.3371 39.1969 53.3371 37.8139 53.3371 36.4299 54.4631 35.3039 55.8461 35.3039L61.5701 35.3039C64.0571 35.3039 66.0791 33.2819 66.0791 30.7959 66.0791 28.3089 64.0571 26.2859 61.5701 26.2859L48.5901 26.2859C47.2071 26.2859 46.0811 25.1609 46.0811 23.7779 46.0811 22.3939 47.2071 21.2679 48.5901 21.2679L67.8861 21.2679C70.3731 21.2679 72.3961 19.2459 72.3961 16.7599 72.3961 14.3209 70.4241 12.3119 67.9901 12.2559 67.9561 12.2519 67.9211 12.2499 67.8861 12.2499L58.4441 12.2499C55.9001 12.2499 53.8301 10.1799 53.8301 7.6359 53.8301 5.0919 55.9001 3.0219 58.4441 3.0219L95.0711 3.0219C95.1471 3.0429 95.2261 3.0559 95.3061 3.0589 108.4721 3.5859 120.0601 11.3389 125.5501 23.2929 133.5521 40.7189 125.8861 61.4059 108.4601 69.4079M128.3851 24.8969C123.1311 10.9679 110.3471 1.7699 95.6681 1.0739 95.5671 1.0389 95.4601 1.0219 95.3511 1.0219L58.7401 1.0219C55.7701 1.0219 53.0241 2.8629 52.1321 5.6959 51.7631 6.8659 51.7571 7.9909 51.9811 9.0309 52.1361 9.7479 52.4111 10.4199 52.7781 11.0309 53.9361 12.9549 56.0391 14.2499 58.4441 14.2499L67.8321 14.2499C67.8761 14.2539 67.9201 14.2559 67.9661 14.2549 68.7061 14.2369 69.4521 14.5109 69.8651 15.1249 71.2101 17.1299 69.7931 19.2679 67.8861 19.2679L48.7911 19.2679C46.4371 19.2679 44.3321 20.9849 44.1031 23.3269 43.8411 26.0149 45.9551 28.2859 48.5901 28.2859L61.4211 28.2859C62.7331 28.2859 63.9321 29.2279 64.0651 30.5329 64.2191 32.0329 63.0401 33.3039 61.5701 33.3039L56.0471 33.3039C53.6931 33.3039 51.5881 35.0209 51.3591 37.3639 51.0971 40.0509 53.2111 42.3229 55.8461 42.3229 56.7681 42.3229 57.5301 43.0019 57.6821 43.9109 58.2181 47.1009 59.1711 50.1999 60.5281 53.1529 64.6271 62.0789 71.9571 68.8749 81.1681 72.2889 85.3321 73.8319 89.6551 74.5999 93.9671 74.5999 99.3921 74.5999 104.8011 73.3839 109.8531 70.9639 126.9221 62.7859 135.0651 42.6059 128.3851 24.8969"/>
      <path fill="#040405" d="M101.3742,54.0227 C97.0542,56.0077 92.2222,56.1897 87.7632,54.5377 C83.3062,52.8847 79.7582,49.5957 77.7742,45.2747 C73.6802,36.3547 77.6032,25.7647 86.5202,21.6687 C88.8882,20.5807 91.4092,20.0347 93.9382,20.0347 C96.0242,20.0347 98.1172,20.4067 100.1322,21.1537 C104.5892,22.8057 108.1372,26.0957 110.1212,30.4167 C114.2162,39.3367 110.2922,49.9257 101.3742,54.0227 M100.8272,19.2787 C95.8692,17.4407 90.4922,17.6437 85.6862,19.8507 C75.7662,24.4077 71.4022,36.1867 75.9572,46.1087 C78.1642,50.9157 82.1102,54.5747 87.0682,56.4127 C89.3102,57.2437 91.6372,57.6567 93.9582,57.6567 C96.7712,57.6567 99.5762,57.0497 102.2092,55.8397 C112.1292,51.2837 116.4932,39.5037 111.9382,29.5817 C109.7312,24.7757 105.7852,21.1167 100.8272,19.2787"/>
      <path fill="#B7C2CE" d="M100.2726,28.2971 C99.9686,27.7661 99.4076,27.4391 98.8006,27.4391 L88.8646,27.4391 C88.2566,27.4391 87.6956,27.7661 87.3926,28.2971 L82.4246,36.9871 C82.1206,37.5181 82.1206,38.1721 82.4246,38.7041 L87.3926,47.3931 C87.6956,47.9241 88.2566,48.2521 88.8646,48.2521 L98.8006,48.2521 C99.4076,48.2521 99.9686,47.9241 100.2726,47.3931 L105.2406,38.7041 C105.5436,38.1721 105.5436,37.5181 105.2406,36.9871 L100.2726,28.2971 Z"/>
    </g>
    <rect width="140" height="96"/>
  </g>
</svg>
