<svg id="helm_1_" xmlns="http://www.w3.org/2000/svg" xmlns:xlink="http://www.w3.org/1999/xlink" viewBox="0 0 170 190"><style>.st0{fill:#D0D9EA;} .st1{clip-path:url(#SVGID_2_);fill:#FC964B;} .st2{fill:#647096;} .st3{fill:#7687B2;} .st4{fill:#FFFFFF;} .st5{fill:#F7AE69;}</style><g id="helm"><path class="st0" d="M84.3 5.9S68 42.1 64.8 50.3C60.2 62 39.4 60.6 39.4 43.9l44.9-38z"/><defs><path id="SVGID_1_" d="M122.3 20.2S110.9 3.9 81.1 3.9s-43.7 21.3-43.7 38 19.6 18 24.1 6.3c3.2-8.2 8.9-21 8.9-21l51.9-7z"/></defs><use xlink:href="#SVGID_1_" overflow="visible" fill="#EBEFF7"/><clipPath id="SVGID_2_"><use xlink:href="#SVGID_1_" overflow="visible"/></clipPath><path class="st1" d="M109.9 18.4S103.9 6 82.5 3.1l-14.2.7S91 2.7 102 18.7l7.9-.3z"/><path class="st2" d="M70.4 27.3h71s-11-9.6-35.2-9.2-35.8 9.2-35.8 9.2z"/><ellipse transform="rotate(-82.98 48.403 39.865)" class="st3" cx="48.4" cy="39.9" rx="10.1" ry="8.5"/><ellipse transform="rotate(-82.98 47.337 39.865)" class="st4" cx="47.3" cy="39.9" rx="7.2" ry="6.1"/><ellipse transform="rotate(-82.98 47.128 39.865)" class="st5" cx="47.1" cy="39.9" rx="5.2" ry="4.3"/><ellipse transform="rotate(-26.903 65.1 13.046)" class="st4" cx="65.1" cy="13" rx="2.1" ry="2"/></g></svg>