<svg xmlns="http://www.w3.org/2000/svg" width="142" height="88" viewBox="0 0 142 88" xmlns:xlink="http://www.w3.org/1999/xlink">
  <defs>
    <polygon id="a" points=".834 0 93.834 0 93.834 45 .834 45"/>
    <polygon id="c" points="0 .699 5.874 .699 5.874 6.574 0 6.574"/>
  </defs>
  <g fill="none" fill-rule="evenodd">
    <g transform="translate(10 15)">
      <path fill="#B9BBBE" d="M118.8337,30.2656 C118.5577,30.2656 118.3337,30.4896 118.3337,30.7656 C118.3337,31.8356 117.4667,32.7036 116.3967,32.7036 L116.3957,32.7036 C116.1197,32.7036 115.8957,32.9266 115.8957,33.2036 C115.8957,33.4796 116.1197,33.7036 116.3957,33.7036 L116.3967,33.7036 C117.4667,33.7036 118.3337,34.5706 118.3337,35.6406 C118.3337,35.9166 118.5577,36.1406 118.8337,36.1406 C119.1097,36.1406 119.3337,35.9166 119.3337,35.6406 C119.3337,34.5706 120.2007,33.7036 121.2707,33.7036 C121.5467,33.7036 121.7707,33.4796 121.7707,33.2036 C121.7707,32.9266 121.5467,32.7036 121.2707,32.7036 C120.2007,32.7036 119.3337,31.8356 119.3337,30.7656 C119.3337,30.4896 119.1097,30.2656 118.8337,30.2656"/>
      <path fill="#7687B2" d="M18.8337,17.9658 C18.8337,17.2338 19.0457,16.5568 19.3907,15.9658 L15.8337,15.9658 C14.7307,15.9658 13.8337,16.8628 13.8337,17.9658 L13.8337,54.9658 C13.8337,56.0688 14.7307,56.9658 15.8337,56.9658 L19.3907,56.9658 C19.0457,56.3748 18.8337,55.6968 18.8337,54.9658 L18.8337,17.9658 Z"/>
      <path fill="#E3E7F8" d="M100.8337,15.9658 L95.8337,15.9658 L22.8337,15.9658 C21.7307,15.9658 20.8337,16.8628 20.8337,17.9658 L20.8337,54.9658 C20.8337,56.0688 21.7307,56.9658 22.8337,56.9658 L95.8337,56.9658 L100.8337,56.9658 C101.9367,56.9658 102.8337,56.0688 102.8337,54.9658 L102.8337,17.9658 C102.8337,16.8628 101.9367,15.9658 100.8337,15.9658"/>
      <g transform="translate(11 13.966)">
        <mask id="b" fill="white">
          <use xlink:href="#a"/>
        </mask>
        <path fill="#040405" d="M4.8337,43.0001 C3.7297,43.0001 2.8337,42.1041 2.8337,41.0001 L2.8337,4.0001 C2.8337,2.8961 3.7297,2.0001 4.8337,2.0001 L5.9667,2.0001 C7.0417,2.0001 7.8397,2.9021 7.8337,3.9781 L7.8337,4.0001 L7.8337,41.0001 L7.8337,41.0221 C7.8397,42.0981 7.0417,43.0001 5.9667,43.0001 L4.8337,43.0001 Z M91.8337,41.0001 C91.8337,42.1031 90.9367,43.0001 89.8337,43.0001 L84.8337,43.0001 L11.8337,43.0001 C10.7307,43.0001 9.8337,42.1031 9.8337,41.0001 L9.8337,4.0001 C9.8337,2.8971 10.7307,2.0001 11.8337,2.0001 L84.8337,2.0001 L89.8337,2.0001 C90.9367,2.0001 91.8337,2.8971 91.8337,4.0001 L91.8337,41.0001 Z M89.8337,0.0001 L84.8337,0.0001 L11.8337,0.0001 L4.8337,0.0001 C2.6277,0.0001 0.8337,1.7941 0.8337,4.0001 L0.8337,41.0001 C0.8337,43.2061 2.6277,45.0001 4.8337,45.0001 L11.8337,45.0001 L84.8337,45.0001 L89.8337,45.0001 C92.0397,45.0001 93.8337,43.2061 93.8337,41.0001 L93.8337,4.0001 C93.8337,1.7941 92.0397,0.0001 89.8337,0.0001 Z" mask="url(#b)"/>
      </g>
      <path fill="#B9BBBE" d="M15.7107 2.1582C15.8567 2.1582 16.0027 2.0942 16.1007 1.9712L17.0317.8122C17.2047.5972 17.1707.2832 16.9557.1102 16.7407-.0628 16.4257-.0288 16.2527.1862L15.3217 1.3452C15.1487 1.5602 15.1827 1.8752 15.3987 2.0482 15.4907 2.1222 15.6007 2.1582 15.7107 2.1582M11.5667 5.0278L10.6357 6.1868C10.4627 6.4018 10.4967 6.7158 10.7127 6.8888 10.8047 6.9638 10.9147 6.9998 11.0247 6.9998 11.1707 6.9998 11.3167 6.9358 11.4147 6.8128L12.3457 5.6538C12.5187 5.4388 12.4847 5.1238 12.2697 4.9508 12.0547 4.7788 11.7397 4.8128 11.5667 5.0278M17.2043 6.017L16.1993 4.907C16.0133 4.702 15.6973 4.687 15.4933 4.872 15.2873 5.058 15.2723 5.373 15.4573 5.578L16.4633 6.688C16.5613 6.797 16.6973 6.852 16.8333 6.852 16.9533 6.852 17.0733 6.809 17.1693 6.723 17.3743 6.538 17.3903 6.222 17.2043 6.017M11.8391 2.2563C11.9591 2.2563 12.0791 2.2133 12.1741 2.1273 12.3801 1.9413 12.3951 1.6253 12.2101 1.4213L11.2041.3113C11.0191.1053 10.7031.0913 10.4981.2763 10.2931.4613 10.2771.7773 10.4631.9823L11.4681 2.0913C11.5671 2.2013 11.7031 2.2563 11.8391 2.2563"/>
      <path fill="#040405" d="M46.823 45.7978L47.611 45.7978C47.831 45.7978 47.989 46.0078 47.928 46.2188L46.483 51.2348C46.442 51.3768 46.313 51.4738 46.166 51.4738L45.323 51.4738C45.18 51.4738 45.053 51.3808 45.01 51.2448L44.586 49.9268C44.581 49.9108 44.577 49.8938 44.574 49.8768L44.378 48.6038 44.354 48.6038 44.14 49.8768C44.138 49.8888 44.135 49.9008 44.132 49.9118L43.757 51.2348C43.716 51.3758 43.587 51.4738 43.439 51.4738L42.605 51.4738C42.459 51.4738 42.33 51.3768 42.289 51.2358L40.836 46.2188C40.775 46.0078 40.933 45.7978 41.153 45.7978L41.948 45.7978C42.099 45.7978 42.231 45.9018 42.267 46.0478L42.874 48.4958C42.877 48.5088 42.88 48.5228 42.881 48.5358L43.023 49.7178 43.063 49.7178 43.196 48.5558C43.198 48.5348 43.202 48.5138 43.209 48.4928L43.76 46.7648C43.803 46.6288 43.93 46.5358 44.073 46.5358L44.676 46.5358C44.823 46.5358 44.951 46.6318 44.992 46.7728L45.502 48.5108C45.506 48.5248 45.509 48.5388 45.511 48.5528L45.693 49.7178 45.717 49.7178 45.875 48.5498C45.876 48.5378 45.879 48.5258 45.882 48.5138L46.504 46.0468C46.541 45.9008 46.672 45.7978 46.823 45.7978M51.7649 49.5737C51.7649 50.4877 53.3849 50.4877 53.3929 49.5737L53.3929 46.1277C53.3929 45.9457 53.5399 45.7977 53.7229 45.7977L54.5139 45.7977C54.6959 45.7977 54.8439 45.9457 54.8439 46.1277L54.8439 49.5737C54.8359 52.2357 50.3059 52.2357 50.3139 49.5737L50.3139 46.1277C50.3139 45.9457 50.4619 45.7977 50.6439 45.7977L51.4349 45.7977C51.6179 45.7977 51.7649 45.9457 51.7649 46.1277L51.7649 49.5737zM57.7429 45.7978L58.6319 45.7978C58.7629 45.7978 58.8819 45.8768 58.9339 45.9968L59.7409 47.8708C59.8549 48.1358 60.2309 48.1368 60.3469 47.8718L61.1589 45.9968C61.2109 45.8758 61.3299 45.7978 61.4619 45.7978L62.3499 45.7978C62.5329 45.7978 62.6799 45.9458 62.6799 46.1278L62.6799 51.1438C62.6799 51.3258 62.5329 51.4738 62.3499 51.4738L61.5689 51.4738C61.3859 51.4738 61.2379 51.3248 61.2389 51.1428L61.2449 49.8508C61.2449 49.8428 61.2449 49.8348 61.2459 49.8268L61.3329 48.6928 61.2849 48.6848 60.6209 50.4208C60.5719 50.5478 60.4499 50.6318 60.3129 50.6318L59.7789 50.6318C59.6429 50.6318 59.5209 50.5488 59.4719 50.4228L58.7929 48.6848 58.7519 48.6928 58.8469 49.8248C58.8479 49.8338 58.8479 49.8428 58.8479 49.8528L58.8479 51.1438C58.8479 51.3258 58.7009 51.4738 58.5189 51.4738L57.7429 51.4738C57.5609 51.4738 57.4129 51.3258 57.4129 51.1438L57.4129 46.1278C57.4129 45.9458 57.5609 45.7978 57.7429 45.7978M67.5608 48.54C68.4268 48.548 68.4268 47.129 67.5608 47.137L67.0568 47.137C66.8748 47.137 66.7278 47.285 66.7278 47.466L66.7278 48.21C66.7278 48.393 66.8748 48.54 67.0568 48.54L67.5608 48.54zM65.2918 46.127C65.2918 45.946 65.4398 45.798 65.6218 45.798L67.5608 45.798C68.9478 45.798 69.6368 46.8 69.6368 47.802 69.6368 48.812 68.9398 49.814 67.5688 49.814L67.0568 49.814C66.8748 49.814 66.7278 49.962 66.7278 50.144L66.7278 51.144C66.7278 51.326 66.5798 51.474 66.3978 51.474L65.6218 51.474C65.4398 51.474 65.2918 51.326 65.2918 51.144L65.2918 46.127zM73.429 49.5737C73.429 50.4877 75.049 50.4877 75.056 49.5737L75.056 46.1277C75.056 45.9457 75.204 45.7977 75.386 45.7977L76.178 45.7977C76.36 45.7977 76.508 45.9457 76.508 46.1277L76.508 49.5737C76.5 52.2357 71.971 52.2357 71.978 49.5737L71.978 46.1277C71.978 45.9457 72.126 45.7977 72.308 45.7977L73.099 45.7977C73.282 45.7977 73.429 45.9457 73.429 46.1277L73.429 49.5737zM79.5051 49.8916C79.6271 49.7776 79.8101 49.7776 79.9411 49.8806 80.5601 50.3666 81.5571 50.3336 81.5921 49.7896 81.6081 49.4696 81.0871 49.2856 80.6221 49.2216 79.7081 49.0776 78.8751 48.4996 78.8751 47.4176 78.8751 46.3036 79.8851 45.7186 80.9271 45.7186 81.5171 45.7186 82.0881 45.8586 82.6081 46.3466 82.7551 46.4836 82.7381 46.7236 82.5791 46.8456L82.1441 47.1806C82.0271 47.2696 81.8641 47.2706 81.7481 47.1816 81.1501 46.7226 80.3151 46.7986 80.2941 47.3936 80.3101 47.6656 80.6061 47.8266 81.0471 47.9226 82.0571 48.1066 83.0681 48.4596 83.0031 49.8546 82.9551 50.9536 81.8001 51.5546 80.7581 51.5546 80.1691 51.5546 79.5501 51.2966 79.0511 50.7856 78.9211 50.6526 78.9231 50.4366 79.0591 50.3096L79.5051 49.8916z"/>
      <path fill="#8BA4E8" d="M27.8337 20.9658C27.8337 22.0698 26.9377 22.9658 25.8337 22.9658 24.7297 22.9658 23.8337 22.0698 23.8337 20.9658 23.8337 19.8618 24.7297 18.9658 25.8337 18.9658 26.9377 18.9658 27.8337 19.8618 27.8337 20.9658M99.8337 20.9658C99.8337 22.0698 98.9377 22.9658 97.8337 22.9658 96.7297 22.9658 95.8337 22.0698 95.8337 20.9658 95.8337 19.8618 96.7297 18.9658 97.8337 18.9658 98.9377 18.9658 99.8337 19.8618 99.8337 20.9658M27.8337 51.9658C27.8337 53.0698 26.9377 53.9658 25.8337 53.9658 24.7297 53.9658 23.8337 53.0698 23.8337 51.9658 23.8337 50.8618 24.7297 49.9658 25.8337 49.9658 26.9377 49.9658 27.8337 50.8618 27.8337 51.9658M99.8337 51.9658C99.8337 53.0698 98.9377 53.9658 97.8337 53.9658 96.7297 53.9658 95.8337 53.0698 95.8337 51.9658 95.8337 50.8618 96.7297 49.9658 97.8337 49.9658 98.9377 49.9658 99.8337 50.8618 99.8337 51.9658"/>
      <g transform="translate(0 17.966)">
        <mask id="d" fill="white">
          <use xlink:href="#c"/>
        </mask>
        <path fill="#B9BBBE" d="M2.9373,5.5743 C1.8693,5.5743 1.0003,4.7053 1.0003,3.6373 C1.0003,2.5693 1.8693,1.6993 2.9373,1.6993 C4.0053,1.6993 4.8743,2.5693 4.8743,3.6373 C4.8743,4.7053 4.0053,5.5743 2.9373,5.5743 M2.9373,0.6993 C1.3173,0.6993 -0.0007,2.0173 -0.0007,3.6373 C-0.0007,5.2573 1.3173,6.5743 2.9373,6.5743 C4.5573,6.5743 5.8743,5.2573 5.8743,3.6373 C5.8743,2.0173 4.5573,0.6993 2.9373,0.6993" mask="url(#d)"/>
      </g>
      <path fill="#000000" d="M37.6794 33.5893L37.7304 33.4023C37.8574 32.9363 37.5064 32.4773 37.0244 32.4773L36.1234 32.4773C35.7894 32.4773 35.4974 32.7033 35.4144 33.0273L35.3664 33.2143C35.2464 33.6773 35.5964 34.1293 36.0754 34.1293L36.9724 34.1293C37.3034 34.1293 37.5924 33.9073 37.6794 33.5893M41.8664 37.2303L40.2824 37.2303C39.9574 37.2303 39.6694 37.4513 39.5774 37.7633 39.0884 39.4373 38.7634 40.5673 38.5564 41.3013 38.4674 41.6163 38.1794 41.8333 37.8524 41.8333L35.9484 41.8333C35.4634 41.8333 35.1124 41.3693 35.2434 40.9013L36.0184 38.1623C36.1504 37.6943 35.7994 37.2303 35.3134 37.2303L35.0314 37.2303C34.7054 37.2303 34.4184 37.4463 34.3274 37.7603L33.3064 41.3033C33.2164 41.6173 32.9294 41.8333 32.6034 41.8333L30.6804 41.8333C30.1914 41.8333 29.8404 41.3633 29.9774 40.8953L30.7774 38.1693C30.9154 37.7003 30.5634 37.2303 30.0754 37.2303L30.0664 37.2303C29.6054 37.2303 29.2594 36.8103 29.3474 36.3583L29.7124 34.4953C29.7794 34.1513 30.0804 33.9033 30.4304 33.9033L31.5074 33.9033C31.8284 33.9033 32.1114 33.6953 32.2064 33.3893 32.2604 33.2173 32.3164 33.0163 32.4044 32.7023L30.9084 32.7023C30.4424 32.7023 30.0954 32.2733 30.1934 31.8173L30.6034 29.9043C30.6764 29.5673 30.9744 29.3253 31.3194 29.3253L32.8644 29.3253C33.1854 29.3253 33.4694 29.1213 33.5634 28.8133 33.8884 27.7483 34.2314 26.5383 34.5294 25.4983 34.6194 25.1843 34.9054 24.9733 35.2324 24.9733L37.1554 24.9733C37.6434 24.9733 37.9954 25.4423 37.8574 25.9113L37.1324 28.3873C36.9944 28.8563 37.3464 29.3253 37.8344 29.3253L38.1094 29.3253C38.4344 29.3253 38.7214 29.1113 38.8124 28.7993L39.7794 25.4993C39.8704 25.1873 40.1574 24.9733 40.4824 24.9733L42.4484 24.9733C42.9394 24.9733 43.2914 25.4483 43.1484 25.9183L42.3984 28.3803C42.2554 28.8503 42.6074 29.3253 43.0984 29.3253L43.1704 29.3253C43.6554 29.3253 44.0064 29.7893 43.8744 30.2563L43.3364 32.1693C43.2474 32.4853 42.9594 32.7023 42.6314 32.7023L41.6194 32.7023C41.2894 32.7023 40.9994 32.9243 40.9124 33.2433L40.7344 33.9033 42.2584 33.9033C42.7234 33.9033 43.0714 34.3313 42.9754 34.7863L42.5824 36.6493C42.5114 36.9883 42.2124 37.2303 41.8664 37.2303M49.7258 36.705C49.9258 39.282 55.2788 39.282 55.4788 36.705L55.4788 29.226C55.2788 26.599 49.9258 26.599 49.7258 29.226L49.7258 36.705zM46.1988 36.705L46.1988 29.226C46.1988 25.498 49.6008 23.847 52.6018 23.847 55.6288 23.847 59.0068 25.498 59.0068 29.226L59.0068 36.705C59.0068 40.407 55.6288 42.059 52.6018 42.059 49.6008 42.059 46.1988 40.407 46.1988 36.705zM65.3704 41.8081C64.9654 41.8081 64.6384 41.4801 64.6384 41.0761L64.6384 29.3261 63.4364 30.3661C63.1634 30.6021 62.7594 30.6041 62.4834 30.3701L61.2504 29.3261C60.9304 29.0541 60.9044 28.5691 61.1934 28.2641L64.9714 24.2761C65.1104 24.1301 65.3024 24.0471 65.5034 24.0471L67.3584 24.0471C67.7624 24.0471 68.0904 24.3751 68.0904 24.7791L68.0904 41.0761C68.0904 41.4801 67.7624 41.8081 67.3584 41.8081L65.3704 41.8081zM74.198 41.8081C73.794 41.8081 73.466 41.4801 73.466 41.0761L73.466 29.3261 72.264 30.3661C71.991 30.6021 71.587 30.6041 71.311 30.3701L70.079 29.3261C69.758 29.0541 69.732 28.5691 70.021 28.2641L73.8 24.2761C73.938 24.1301 74.13 24.0471 74.331 24.0471L76.186 24.0471C76.59 24.0471 76.918 24.3751 76.918 24.7791L76.918 41.0761C76.918 41.4801 76.59 41.8081 76.186 41.8081L74.198 41.8081zM91.2927 24.477L91.9457 25.783C92.0517 25.997 92.0477 26.248 91.9347 26.458L83.8427 41.424C83.7147 41.661 83.4677 41.808 83.1987 41.808L80.8837 41.808C80.3297 41.808 79.9767 41.217 80.2387 40.729L86.7817 28.579C87.0447 28.091 86.6907 27.499 86.1367 27.499L80.3147 27.499C79.9107 27.499 79.5827 27.171 79.5827 26.767L79.5827 24.805C79.5827 24.4 79.9107 24.072 80.3147 24.072L90.6377 24.072C90.9157 24.072 91.1687 24.229 91.2927 24.477"/>
    </g>
    <rect width="142" height="88"/>
  </g>
</svg>
