<svg xmlns="http://www.w3.org/2000/svg" width="140" height="96" viewBox="0 0 140 96">
  <g fill="none" fill-rule="evenodd">
    <g transform="translate(7 2)">
      <polygon fill="#F6F6F7" fill-opacity=".9" points="108.054 25.704 84.637 2 61.351 25.822 68.482 25.773 68.521 65.28 100.962 65.211 100.923 25.704"/>
      <g transform="translate(0 .493)">
        <path fill="#B9BBBE" d="M68.8729,37.4023 C68.8109,37.6603 68.6469,37.8823 68.4209,38.0203 L67.4169,38.6293 L69.4199,41.9263 L69.4029,25.2793 C69.4029,25.0133 69.2969,24.7573 69.1069,24.5703 C68.9199,24.3843 68.6669,24.2803 68.4029,24.2803 L68.3959,24.2803 L66.0629,24.2963 C65.1749,24.3023 64.7199,23.2323 65.3409,22.5973 L83.1619,4.3673 C83.9319,3.5803 85.1979,3.5763 85.9719,4.3603 L103.8999,22.5083 C104.5239,23.1403 104.0769,24.2113 103.1879,24.2113 L100.8449,24.2113 C100.5789,24.2113 100.3249,24.3173 100.1369,24.5053 C99.9499,24.6923 99.8439,24.9463 99.8449,25.2123 L99.8569,37.9923 C100.5809,38.2263 101.2529,38.5643 101.8579,39.0013 L101.8499,30.2153 C101.8479,28.0053 103.6389,26.2113 105.8499,26.2113 L107.9759,26.2113 C108.3789,26.2113 108.7429,25.9693 108.8979,25.5973 C109.0539,25.2243 108.9699,24.7953 108.6869,24.5083 L85.2699,0.8043 C85.0819,0.6143 84.8259,0.5073 84.5589,0.5073 L84.5569,0.5073 C84.2879,0.5073 84.0319,0.6163 83.8439,0.8083 L60.5569,24.6303 C60.2749,24.9193 60.1939,25.3483 60.3519,25.7203 C60.5099,26.0913 60.8589,26.3423 61.2789,26.3293 L63.3809,26.3143 C65.5989,26.2993 67.4059,28.0923 67.4079,30.3103 L67.4129,34.4323 L68.7559,36.6463 C68.8939,36.8723 68.9359,37.1443 68.8729,37.4023"/>
        <path fill="#8EA1E1" d="M36.2059 46.812L15.9289 46.812 26.7679 57.651C26.7999 57.648 26.8289 57.632 26.8619 57.632L39.0479 57.632 44.3939 57.632 42.1659 53.963 41.1619 54.573C41.0039 54.669 40.8249 54.718 40.6429 54.718 40.5629 54.718 40.4839 54.709 40.4059 54.689 40.1479 54.626 39.9259 54.464 39.7879 54.237L36.0259 48.042C35.7779 47.633 35.8729 47.129 36.2059 46.812M25.8621 61.1274L17.5491 69.4404C17.2351 69.7534 16.8991 70.0364 16.5541 70.3034L25.8621 70.3034 25.8621 61.1274z"/>
        <path fill="#C7D0F0" d="M16.1351,68.0259 L25.2251,58.9369 L13.5141,47.2259 L4.4251,56.3159 C2.8611,57.8799 2.0001,59.9589 2.0001,62.1709 C2.0001,64.3829 2.8611,66.4619 4.4251,68.0259 L4.4251,68.0259 C5.9891,69.5899 8.0681,70.4509 10.2801,70.4509 C12.4921,70.4509 14.5711,69.5899 16.1351,68.0259"/>
        <polygon fill="#D37979" points="49.732 34.309 41.753 21.204 38.507 23.176 46.485 36.28"/>
        <polygon fill="#F6F6F7" points="52.011 35.265 46.286 38.742 47.129 40.13 52.854 36.653"/>
        <polygon fill="#F6F6F7" points="41.953 18.743 40.922 17.045 35.198 20.521 36.228 22.219"/>
        <path fill="#FFFFFF" d="M59.4808,54.0181 C58.9778,54.3231 58.4128,54.4801 57.8388,54.4801 C57.5858,54.4801 57.3318,54.4501 57.0798,54.3891 C56.2558,54.1871 55.5598,53.6771 55.1198,52.9531 L55.1198,52.9531 C54.6798,52.2271 54.5478,51.3751 54.7498,50.5511 C54.9508,49.7271 55.4608,49.0311 56.1858,48.5911 C56.9098,48.1511 57.7628,48.0201 58.5868,48.2211 C59.4098,48.4221 60.1058,48.9331 60.5458,49.6571 C61.4548,51.1541 60.9768,53.1101 59.4808,54.0181 L59.4808,54.0181 Z M65.7078,39.6671 L49.6838,49.3981 L54.6838,57.6321 L61.2978,57.6321 C61.3028,57.5901 61.3028,57.5491 61.3078,57.5071 C61.9718,52.1871 64.7608,47.6461 68.7128,44.6171 L65.7078,39.6671 Z"/>
        <polygon fill="#FFFFFF" points="43.876 52.925 46.734 57.632 52.344 57.632 47.974 50.436"/>
        <polygon fill="#F6F6F7" points="38.255 47.859 40.979 52.344 66.528 36.83 63.804 32.344"/>
        <path fill="#FBB848" d="M58.8367,50.6953 C58.6737,50.4273 58.4167,50.2383 58.1117,50.1643 C57.8067,50.0883 57.4907,50.1383 57.2237,50.3003 C56.9557,50.4643 56.7667,50.7213 56.6917,51.0263 C56.6177,51.3303 56.6667,51.6463 56.8287,51.9143 C56.9917,52.1823 57.2497,52.3713 57.5537,52.4453 C57.8597,52.5193 58.1737,52.4713 58.4427,52.3083 C58.9957,51.9723 59.1727,51.2483 58.8367,50.6953"/>
        <path fill="#F75959" d="M63.3133,57.6318 L77.2973,57.6318 L78.4283,51.9088 C78.6133,50.9688 79.4943,50.3328 80.4443,50.4508 L86.5843,51.2168 C87.4283,51.3228 88.0873,51.9978 88.1743,52.8438 L88.4253,55.3158 L89.2753,52.9818 C89.5673,52.1818 90.3723,51.6898 91.2173,51.7958 L97.1933,52.5408 C98.1443,52.6598 98.8413,53.4928 98.7903,54.4498 L98.6203,57.6318 L111.6533,57.6318 C111.0813,55.2968 110.0313,53.0798 108.5043,51.1168 C106.5233,48.5718 103.9353,46.6908 101.0103,45.5818 C100.0963,46.4608 98.9563,47.1728 97.6323,47.6188 C96.6453,47.9508 95.6483,48.1128 94.6823,48.1128 C92.5513,48.1128 90.5813,47.3178 89.2063,45.8478 C88.0673,46.5758 86.7493,46.9558 85.3743,46.9558 C83.7793,46.9558 82.1203,46.4678 80.6153,45.4948 C79.4933,44.7698 78.5863,43.8548 77.9233,42.8338 C70.4763,43.9238 64.3443,49.8288 63.3133,57.6318"/>
        <path fill="#69C49A" d="M89.723,41.7554 C90.637,40.2134 92.148,38.9674 94.035,38.2394 C94.056,37.4934 93.842,36.7504 93.411,36.1254 C92.838,35.2924 91.933,34.7434 90.93,34.6174 C89.918,34.4924 88.906,34.8024 88.146,35.4674 C87.486,36.0464 87.086,36.8514 86.981,37.7154 C88.328,38.8294 89.276,40.2404 89.723,41.7554"/>
        <path fill="#B4E1CD" d="M81.7005 43.8154C83.7825 45.1594 86.2045 45.3224 87.9915 44.2694 88.2165 42.2064 87.0715 40.0654 84.9905 38.7214 82.9085 37.3764 80.4855 37.2134 78.6985 38.2674 78.4735 40.3304 79.6185 42.4714 81.7005 43.8154M95.056 39.9771C92.708 40.7691 91.072 42.5631 90.783 44.6181 92.258 46.0781 94.645 46.5161 96.993 45.7241 99.342 44.9321 100.977 43.1381 101.266 41.0831 99.791 39.6231 97.404 39.1851 95.056 39.9771"/>
        <path fill="#FFFFFF" d="M98.7899,54.4497 C98.8409,53.4927 98.1439,52.6597 97.1929,52.5407 L91.2169,51.7957 C90.3729,51.6897 89.5669,52.1817 89.2759,52.9817 L88.4249,55.3157 L88.1739,52.8447 C88.0879,51.9977 87.4289,51.3227 86.5839,51.2177 L80.4449,50.4507 C79.4939,50.3327 78.6139,50.9697 78.4279,51.9087 L77.2969,57.6317 L79.1579,57.6317 L79.9999,53.3687 C80.1229,52.7457 80.7069,52.3237 81.3379,52.4027 L85.4009,52.9087 C85.9609,52.9787 86.3979,53.4267 86.4559,53.9887 L86.8259,57.6317 L89.5229,57.6317 L90.6609,54.5127 C90.8539,53.9827 91.3879,53.6567 91.9479,53.7257 L95.8479,54.2127 C96.4779,54.2917 96.9409,54.8447 96.9069,55.4787 L96.7919,57.6317 L98.6209,57.6317 L98.7899,54.4497 Z"/>
        <path fill="#C7D0F0" d="M38.0482,89 L38.0482,77.823 C38.0482,77.271 38.4962,76.823 39.0482,76.823 C39.1532,76.823 39.2502,76.853 39.3452,76.883 L39.3452,72.294 C39.2502,72.325 39.1532,72.354 39.0482,72.354 C38.4962,72.354 38.0482,71.907 38.0482,71.354 L38.0482,69.335 C38.0482,68.783 38.4962,68.335 39.0482,68.335 C39.1532,68.335 39.2502,68.365 39.3452,68.395 L39.3452,65.726 C39.2502,65.756 39.1532,65.786 39.0482,65.786 C38.4962,65.786 38.0482,65.338 38.0482,64.786 L38.0482,59.632 L27.8622,59.632 L27.8622,89 L38.0482,89 Z"/>
        <path fill="#E3E7F8" d="M40.0482,69.335 L40.0482,71.355 C40.0482,71.801 39.7502,72.167 39.3452,72.294 L39.3452,76.883 C39.7502,77.011 40.0482,77.376 40.0482,77.823 L40.0482,89 L51.2692,89 L51.2692,72.148 C51.2692,69.939 53.0602,68.148 55.2692,68.148 L105.9372,68.148 C108.1472,68.148 109.9372,69.939 109.9372,72.148 L109.9372,89 L116.1582,89 L116.1582,59.632 L40.0482,59.632 L40.0482,64.786 C40.0482,65.233 39.7502,65.598 39.3452,65.726 L39.3452,68.395 C39.7502,68.523 40.0482,68.888 40.0482,69.335"/>
        <path fill="#8EA1E1" d="M107.9373 70.1475L86.6143 70.1475C86.6313 70.2205 86.6583 70.2885 86.6583 70.3665L86.6583 88.7815C86.6583 88.8585 86.6313 88.9275 86.6143 89.0005L107.9373 89.0005 107.9373 70.1475zM80.4149 88.7813L80.4149 70.3663C80.4149 70.2883 80.4429 70.2203 80.4599 70.1473L53.2689 70.1473 53.2689 89.0003 80.4599 89.0003C80.4429 88.9273 80.4149 88.8593 80.4149 88.7813"/>
        <path fill="#E3E7F8" d="M84.6585,88.7813 L84.6585,70.3663 C84.6585,70.2883 84.6855,70.2203 84.7025,70.1473 L81.5045,70.1473 C81.5205,70.2203 81.5485,70.2883 81.5485,70.3663 L81.5485,88.7813 C81.5485,88.8593 81.5205,88.9273 81.5045,89.0003 L84.7025,89.0003 C84.6855,88.9273 84.6585,88.8593 84.6585,88.7813"/>
        <path fill="#B9BBBE" d="M120.1297 40.8569C121.1977 40.8569 122.0667 41.7259 122.0667 42.7939 122.0667 43.8619 121.1977 44.7319 120.1297 44.7319 119.0617 44.7319 118.1927 43.8619 118.1927 42.7939 118.1927 41.7259 119.0617 40.8569 120.1297 40.8569M120.1297 45.7319C121.7497 45.7319 123.0677 44.4139 123.0677 42.7939 123.0677 41.1739 121.7497 39.8569 120.1297 39.8569 118.5097 39.8569 117.1927 41.1739 117.1927 42.7939 117.1927 44.4139 118.5097 45.7319 120.1297 45.7319M111.2991 34.1714L111.2991 34.1714C112.3691 34.1714 113.2361 35.0384 113.2361 36.1084 113.2361 36.3844 113.4601 36.6084 113.7371 36.6084 114.0131 36.6084 114.2371 36.3844 114.2371 36.1084 114.2371 35.0384 115.1041 34.1714 116.1741 34.1714 116.4501 34.1714 116.6741 33.9474 116.6741 33.6714 116.6741 33.3954 116.4501 33.1714 116.1741 33.1714 115.1041 33.1714 114.2371 32.3044 114.2371 31.2344L114.2371 31.2334C114.2371 30.9574 114.0131 30.7334 113.7371 30.7334 113.4601 30.7334 113.2361 30.9574 113.2361 31.2334L113.2361 31.2344C113.2361 32.3044 112.3691 33.1714 111.2991 33.1714L111.2991 33.1714C111.0231 33.1714 110.7991 33.3954 110.7991 33.6714 110.7991 33.9474 111.0231 34.1714 111.2991 34.1714"/>
        <path fill="#040405" d="M58.4427 52.3086C58.1737 52.4716 57.8597 52.5186 57.5537 52.4456 57.2497 52.3706 56.9917 52.1826 56.8287 51.9146 56.6667 51.6456 56.6177 51.3306 56.6927 51.0256 56.7667 50.7216 56.9557 50.4636 57.2237 50.3006 57.4907 50.1386 57.8067 50.0886 58.1117 50.1636 58.4167 50.2386 58.6737 50.4276 58.8367 50.6956 59.1727 51.2486 58.9957 51.9726 58.4427 52.3086M58.5867 48.2216C57.7627 48.0196 56.9097 48.1516 56.1857 48.5916 55.4607 49.0316 54.9507 49.7276 54.7497 50.5516 54.5477 51.3746 54.6797 52.2276 55.1197 52.9526L55.1197 52.9526C55.5597 53.6776 56.2557 54.1876 57.0797 54.3886 57.3317 54.4506 57.5857 54.4806 57.8387 54.4806 58.4127 54.4806 58.9777 54.3236 59.4807 54.0176 60.9767 53.1096 61.4547 51.1536 60.5467 49.6576 60.1067 48.9326 59.4097 48.4226 58.5867 48.2216M39.3455 68.395C39.2495 68.365 39.1535 68.335 39.0485 68.335 38.4955 68.335 38.0485 68.783 38.0485 69.335L38.0485 71.354C38.0485 71.907 38.4955 72.354 39.0485 72.354 39.1535 72.354 39.2495 72.325 39.3455 72.294 39.7495 72.166 40.0485 71.801 40.0485 71.354L40.0485 69.335C40.0485 68.888 39.7495 68.523 39.3455 68.395"/>
        <path fill="#040405" d="M112.1585,89 L111.9375,89 C110.8325,89 109.9375,88.104 109.9375,87 L109.9375,71.147 C109.9375,69.491 108.5945,68.147 106.9375,68.147 L54.2695,68.147 C52.6125,68.147 51.2695,69.491 51.2695,71.147 L51.2695,87 C51.2695,88.104 50.3735,89 49.2695,89 L42.0485,89 C40.9435,89 40.0485,88.104 40.0485,87 L40.0485,77.823 C40.0485,77.376 39.7495,77.011 39.3455,76.883 C39.2495,76.853 39.1535,76.823 39.0485,76.823 C38.4955,76.823 38.0485,77.271 38.0485,77.823 L38.0485,87 C38.0485,88.104 37.1525,89 36.0485,89 L31.8625,89 C29.6535,89 27.8625,87.209 27.8625,85 L27.8625,63.632 C27.8625,61.423 29.6535,59.632 31.8625,59.632 L36.0485,59.632 C37.1525,59.632 38.0485,60.527 38.0485,61.632 L38.0485,64.786 C38.0485,65.338 38.4955,65.786 39.0485,65.786 C39.1535,65.786 39.2495,65.756 39.3455,65.726 C39.7495,65.598 40.0485,65.233 40.0485,64.786 L40.0485,61.632 C40.0485,60.527 40.9435,59.632 42.0485,59.632 L112.1585,59.632 C114.3675,59.632 116.1585,61.423 116.1585,63.632 L116.1585,85 C116.1585,87.209 114.3675,89 112.1585,89 L112.1585,89 Z M105.9375,89 L86.6145,89 C86.6315,88.927 86.6315,71.221 86.6145,71.148 L105.9375,71.148 C107.0415,71.148 107.9375,72.043 107.9375,73.148 L107.9375,87 C107.9375,88.104 107.0415,89 105.9375,89 L105.9375,89 Z M83.1035,89 L83.1035,89 C82.2225,89 81.5095,88.29 81.5115,87.41 C81.5185,84.021 81.5185,76.127 81.5115,72.739 C81.5095,71.858 82.2225,71.148 83.1035,71.148 C83.9835,71.148 84.6975,71.858 84.6955,72.739 C84.6885,76.127 84.6885,84.021 84.6955,87.41 C84.6975,88.29 83.9835,89 83.1035,89 L83.1035,89 Z M79.5985,89 L55.2695,89 C54.1645,89 53.2695,88.104 53.2695,87 L53.2695,73.148 C53.2695,72.043 54.1645,71.148 55.2695,71.148 L79.5985,71.148 C79.5815,71.221 79.5815,88.927 79.5985,89 L79.5985,89 Z M24.8625,70.304 L19.0245,70.304 C18.1295,70.304 17.6805,69.223 18.3185,68.595 C19.9995,66.943 22.5065,64.458 24.1625,62.815 C24.7935,62.189 25.8625,62.641 25.8625,63.53 L25.8625,69.304 C25.8625,69.856 25.4145,70.304 24.8625,70.304 L24.8625,70.304 Z M10.8115,70.435 C8.4035,70.584 6.1145,69.714 4.4255,68.026 L4.4245,68.026 C2.7365,66.337 1.8665,64.048 2.0165,61.64 C2.1465,59.543 3.1455,57.595 4.6305,56.11 L10.6865,50.055 C12.2485,48.492 14.7815,48.492 16.3435,50.055 L22.3965,56.108 C23.9585,57.67 23.9585,60.203 22.3965,61.765 L16.3415,67.82 C14.8565,69.305 12.9075,70.305 10.8115,70.435 L10.8115,70.435 Z M34.1795,46.812 C34.9635,46.812 35.6325,47.29 35.9945,47.985 C36.0045,48.004 36.0145,48.023 36.0265,48.042 L39.7875,54.237 C39.9255,54.464 40.1475,54.626 40.4055,54.689 C40.4835,54.709 40.5635,54.718 40.6425,54.718 C40.8245,54.718 41.0045,54.669 41.1615,54.573 L42.1655,53.963 L43.4705,56.113 C43.8755,56.779 43.3965,57.632 42.6165,57.632 L39.0485,57.632 L27.5765,57.632 C27.0465,57.632 26.5375,57.421 26.1625,57.046 L19.3435,50.226 C18.0825,48.966 18.9755,46.812 20.7575,46.812 L34.1795,46.812 Z M40.4975,46.497 L61.5615,33.706 C62.8005,32.954 64.4135,33.348 65.1655,34.587 C65.9185,35.826 65.5235,37.439 64.2845,38.191 L43.2215,50.982 C41.9825,51.734 40.3685,51.34 39.6165,50.102 C38.8645,48.863 39.2595,47.249 40.4975,46.497 L40.4975,46.497 Z M39.4955,24.8 C38.9495,23.903 39.2345,22.734 40.1315,22.189 C41.0275,21.645 42.1945,21.929 42.7405,22.825 L49.7315,34.309 L46.4855,36.28 L39.4955,24.8 Z M35.7135,21.37 C35.4285,20.901 35.5775,20.291 36.0465,20.006 L40.0735,17.561 C40.5425,17.276 41.1535,17.425 41.4375,17.894 L41.4375,17.895 C41.7225,18.363 41.5735,18.974 41.1045,19.258 L37.0775,21.704 C36.6085,21.988 35.9975,21.839 35.7135,21.37 L35.7135,21.37 Z M52.4315,35.959 L52.4315,35.959 C52.6645,36.342 52.5425,36.842 52.1595,37.075 L47.8235,39.708 C47.4395,39.941 46.9405,39.819 46.7075,39.436 C46.4745,39.052 46.5965,38.553 46.9795,38.32 L51.3165,35.687 C51.7005,35.454 52.1995,35.576 52.4315,35.959 L52.4315,35.959 Z M48.7895,57.632 L46.7345,57.632 L45.1915,55.091 C44.5405,54.019 44.7185,52.574 45.7205,51.82 C46.8715,50.952 48.4895,51.284 49.2185,52.486 L50.4985,54.594 C51.3075,55.927 50.3485,57.632 48.7895,57.632 L48.7895,57.632 Z M66.7455,41.377 L68.7135,44.617 C64.7605,47.646 61.9715,52.187 61.3075,57.507 C61.3025,57.549 61.3035,57.59 61.2985,57.632 L55.8095,57.632 C55.1105,57.632 54.4625,57.267 54.0995,56.67 L50.7215,51.107 C50.1485,50.164 50.4495,48.934 51.3935,48.36 L63.9975,40.706 C64.9425,40.132 66.1725,40.433 66.7455,41.377 L66.7455,41.377 Z M76.5965,43.082 C77.3375,42.913 78.1055,43.16 78.5985,43.737 C79.1605,44.396 79.8355,44.992 80.6155,45.495 C82.1205,46.468 83.7795,46.956 85.3745,46.956 C86.7485,46.956 88.0675,46.576 89.2065,45.848 C90.5815,47.317 92.5515,48.113 94.6825,48.113 C95.6485,48.113 96.6455,47.951 97.6325,47.619 C98.5625,47.305 99.4005,46.861 100.1345,46.32 C100.7445,45.87 101.5415,45.775 102.2285,46.098 C104.6545,47.235 106.8035,48.932 108.5045,51.117 C109.4155,52.288 110.1565,53.55 110.7275,54.873 C111.2915,56.178 110.2945,57.632 108.8725,57.632 L98.6205,57.632 L96.7925,57.632 L96.9075,55.479 C96.9405,54.844 96.4785,54.292 95.8475,54.213 L91.9485,53.726 C91.3875,53.656 90.8535,53.983 90.6605,54.513 L89.5235,57.632 L86.8255,57.632 L86.4555,53.988 C86.3985,53.427 85.9605,52.979 85.4005,52.909 L81.3385,52.402 C80.7075,52.323 80.1225,52.746 79.9995,53.369 L79.1585,57.632 L77.2975,57.632 L65.7765,57.632 C64.4535,57.632 63.4765,56.364 63.8445,55.093 C65.6025,49.011 70.5705,44.455 76.5965,43.082 L76.5965,43.082 Z M80.4665,37.645 C81.9195,37.42 83.5375,37.783 84.9905,38.721 C87.0715,40.065 88.2165,42.207 87.9915,44.269 C86.2045,45.322 83.7825,45.16 81.7005,43.815 C80.2475,42.877 79.2515,41.551 78.8585,40.134 C78.5435,39 79.3025,37.824 80.4665,37.645 L80.4665,37.645 Z M88.1465,35.467 C88.9065,34.802 89.9175,34.492 90.9295,34.618 C91.9335,34.743 92.8375,35.292 93.4105,36.125 C93.8415,36.75 94.0555,37.493 94.0345,38.24 C92.1485,38.968 90.6375,40.213 89.7225,41.755 C89.2765,40.24 88.3285,38.83 86.9815,37.715 C87.0855,36.852 87.4855,36.046 88.1465,35.467 L88.1465,35.467 Z M95.0555,39.977 C96.6945,39.425 98.3525,39.471 99.7055,40.045 C100.7895,40.506 101.2365,41.832 100.6525,42.854 C99.9235,44.13 98.6325,45.171 96.9935,45.724 C94.6455,46.516 92.2575,46.078 90.7835,44.618 C91.0725,42.563 92.7075,40.769 95.0555,39.977 L95.0555,39.977 Z M125.1585,89 L124.1585,89 C120.8455,89 118.1585,86.313 118.1585,83 L118.1585,58.632 C118.1585,58.08 117.7105,57.632 117.1585,57.632 L115.9095,57.632 C114.6345,57.632 113.5415,56.788 113.1355,55.579 C112.4555,53.553 111.4375,51.631 110.0825,49.889 C108.3975,47.724 106.3195,45.987 103.9795,44.735 C103.1275,44.279 102.7415,43.3 103.0215,42.376 C103.1755,41.869 103.2705,41.345 103.3015,40.808 C103.3155,40.547 103.2305,40.28 103.0605,40.081 C102.7065,39.665 102.2945,39.316 101.8585,39.001 C101.2525,38.564 100.5805,38.226 99.8575,37.992 C99.1435,37.762 98.3855,37.632 97.6045,37.61 C96.7575,37.585 96.0025,37.092 95.7205,36.292 C95.5595,35.835 95.3385,35.397 95.0575,34.991 C94.1615,33.688 92.7465,32.829 91.1685,32.632 C89.5975,32.432 88.0175,32.921 86.8285,33.963 C86.4335,34.309 86.0945,34.707 85.8185,35.142 C85.3635,35.855 84.4585,36.174 83.6465,35.935 C81.3755,35.265 79.0245,35.562 77.2055,36.854 C76.9955,37.003 76.8455,37.236 76.7955,37.489 C76.6795,38.083 76.6475,38.682 76.6925,39.276 C76.7635,40.226 76.1705,41.084 75.2535,41.342 C74.3765,41.589 73.5235,41.897 72.6985,42.263 C71.3145,42.875 69.6955,42.381 68.9105,41.088 C68.1665,39.864 67.4175,38.629 67.4175,38.629 L68.4205,38.02 C68.6475,37.882 68.8105,37.66 68.8725,37.402 C68.9355,37.145 68.8935,36.873 68.7565,36.646 L67.4125,34.433 L64.9945,30.451 C64.8565,30.224 64.6345,30.061 64.3765,29.999 C64.1205,29.934 63.8475,29.977 63.6205,30.115 L55.4175,35.096 C54.9465,35.383 54.3305,35.232 54.0445,34.76 L53.2015,33.373 C52.9145,32.9 52.2995,32.75 51.8275,33.037 L51.4415,33.271 L43.4625,20.166 L43.8455,19.933 C44.0725,19.796 44.2355,19.574 44.2985,19.316 C44.3615,19.058 44.3195,18.786 44.1815,18.56 L42.1125,15.152 C41.8255,14.681 41.2105,14.532 40.7385,14.816 L33.3045,19.331 C33.0775,19.468 32.9145,19.69 32.8525,19.948 C32.7895,20.206 32.8315,20.478 32.9685,20.705 L35.0375,24.112 C35.1755,24.339 35.3975,24.502 35.6555,24.564 C35.7335,24.584 35.8135,24.593 35.8925,24.593 C36.0745,24.593 36.2545,24.544 36.4115,24.448 L36.7975,24.214 L44.7755,37.318 L44.3925,37.551 C44.1665,37.688 44.0035,37.911 43.9405,38.168 C43.8775,38.426 43.9195,38.698 44.0565,38.925 L44.9005,40.313 C45.1865,40.785 45.0365,41.4 44.5645,41.687 L42.2295,43.105 C40.3905,44.222 38.2815,44.812 36.1295,44.812 L13.5145,44.812 C13.3845,44.812 13.2545,44.838 13.1325,44.889 C13.0105,44.94 12.8995,45.013 12.8075,45.105 L3.2495,54.663 C1.4785,56.434 0.2625,58.736 0.0415,61.23 C-0.2595,64.647 1.0905,67.897 3.7275,70.094 C5.6385,71.686 8.1035,72.451 10.5905,72.451 L23.8665,72.451 C24.9715,72.451 25.8625,73.347 25.8625,74.451 L25.8625,83 C25.8625,86.313 23.1765,89 19.8625,89 L19.1595,89 C18.6075,89 18.1595,89.448 18.1595,90 C18.1595,90.552 18.6075,91 19.1595,91 L125.1585,91 C125.7105,91 126.1585,90.552 126.1585,90 C126.1585,89.448 125.7105,89 125.1585,89 L125.1585,89 Z"/>
        <path fill="#B9BBBE" d="M25.8236 32.6646C25.7136 32.6646 25.6036 32.6286 25.5116 32.5546 25.2956 32.3816 25.2616 32.0666 25.4346 31.8516L26.3656 30.6926C26.5386 30.4776 26.8536 30.4436 27.0686 30.6166 27.2836 30.7896 27.3176 31.1036 27.1446 31.3186L26.2136 32.4776C26.1156 32.6006 25.9696 32.6646 25.8236 32.6646M21.1375 37.5059C21.0275 37.5059 20.9175 37.4699 20.8255 37.3959 20.6095 37.2229 20.5755 36.9079 20.7485 36.6929L21.6795 35.5339C21.8525 35.3189 22.1675 35.2849 22.3825 35.4579 22.5975 35.6309 22.6315 35.9449 22.4585 36.1599L21.5275 37.3189C21.4295 37.4419 21.2835 37.5059 21.1375 37.5059M26.9466 37.3589C26.8106 37.3589 26.6746 37.3039 26.5756 37.1939L25.5706 36.0849C25.3846 35.8799 25.4006 35.5639 25.6056 35.3789 25.8106 35.1929 26.1266 35.2079 26.3116 35.4139L27.3176 36.5239C27.5026 36.7279 27.4876 37.0439 27.2816 37.2299 27.1866 37.3159 27.0666 37.3589 26.9466 37.3589M21.952 32.7627C21.816 32.7627 21.68 32.7077 21.581 32.5977L20.576 31.4887C20.39 31.2837 20.406 30.9677 20.611 30.7827 20.816 30.5967 21.131 30.6127 21.317 30.8177L22.323 31.9277C22.508 32.1317 22.493 32.4477 22.287 32.6337 22.192 32.7197 22.072 32.7627 21.952 32.7627"/>
      </g>
    </g>
    <rect width="140" height="96"/>
  </g>
</svg>
