<svg width="626" height="281" viewBox="0 0 626 281" xmlns="http://www.w3.org/2000/svg" xmlns:xlink="http://www.w3.org/1999/xlink"><title>Group</title><defs><path id="a" d="M19 0h600v252H19z"/></defs><g fill="none" fill-rule="evenodd"><g fill="#FFF"><path d="M154.514 117.435c-3.763 0-6.734 3.23-6.734 7.25s3.037 7.25 6.734 7.25c3.764 0 6.735-3.23 6.735-7.25s-3.04-7.25-6.737-7.25zm-24.1 0c-3.762 0-6.733 3.23-6.733 7.25s3.04 7.25 6.736 7.25c3.764 0 6.735-3.23 6.735-7.25.067-4.02-2.97-7.25-6.734-7.25z"/><path d="M186.602 62.593H98.13c-7.46 0-13.536 6.064-13.536 13.513v88.327c0 7.448 6.075 13.512 13.535 13.512H173l-3.498-12.062 8.45 7.778 7.99 7.318 14.262 12.327V76.107c-.066-7.45-6.14-13.513-13.602-13.513zm-25.485 85.36s-2.377-2.834-4.358-5.272c8.65-2.437 11.95-7.776 11.95-7.776-2.708 1.78-5.283 3.032-7.594 3.89-3.3 1.383-6.47 2.24-9.574 2.833-6.338 1.186-12.148.857-17.1-.066-3.763-.724-7-1.713-9.706-2.833-1.518-.594-3.17-1.32-4.82-2.24-.198-.133-.396-.2-.594-.33-.132-.067-.198-.133-.264-.133-1.19-.66-1.85-1.12-1.85-1.12s3.17 5.207 11.555 7.712c-1.98 2.504-4.424 5.405-4.424 5.405-14.59-.46-20.137-9.953-20.137-9.953 0-21.027 9.507-38.1 9.507-38.1 9.51-7.052 18.488-6.854 18.488-6.854l.66.79c-11.884 3.363-17.298 8.57-17.298 8.57s1.452-.79 3.895-1.846c7.065-3.098 12.677-3.89 14.988-4.152.396-.066.726-.132 1.122-.132 4.028-.527 8.584-.66 13.337-.132 6.273.726 13.007 2.57 19.874 6.263 0 0-5.216-4.944-16.44-8.305l.924-1.055s9.045-.198 18.487 6.855c0 0 9.507 17.072 9.507 38.1 0-.066-5.546 9.425-20.137 9.887z"/></g><path d="M260.814 90.805h-21.92v24.587l14.592 13.117v-23.864h7.79c4.952 0 7.395 2.373 7.395 6.196v18.26c0 3.822-2.31 6.393-7.393 6.393H238.83v13.908h21.92c11.752.066 22.78-5.8 22.78-19.247v-19.643c.064-13.71-10.96-19.71-22.715-19.71zm114.883 39.352v-20.17c0-7.25 13.073-8.9 17.035-1.648l12.082-4.88c-4.753-10.415-13.403-13.447-20.6-13.447-11.752 0-23.372 6.79-23.372 19.972v20.17c0 13.316 11.62 19.973 23.108 19.973 7.395 0 16.243-3.626 21.128-13.118l-12.94-5.933c-3.17 8.107-16.44 6.13-16.44-.923zm-39.945-17.402c-4.555-.99-7.592-2.637-7.79-5.47.264-6.79 10.762-7.054 16.902-.528l9.705-7.45c-6.076-7.38-12.94-9.36-20.007-9.36-10.762 0-21.194 6.065-21.194 17.535 0 11.14 8.582 17.138 18.024 18.588 4.82.66 10.168 2.57 10.036 5.866-.396 6.262-13.336 5.933-19.213-1.186l-9.375 8.767c5.48 7.053 12.94 10.612 19.94 10.612 10.76 0 22.712-6.198 23.174-17.536.66-14.303-9.772-17.93-20.204-19.84zm-44.236 36.583h14.79V90.805h-14.79v58.533zM540.89 90.805h-21.92v24.587l14.593 13.117v-23.864h7.79c4.952 0 7.395 2.373 7.395 6.196v18.26c0 3.822-2.31 6.393-7.394 6.393h-22.45v13.908h21.987c11.755.066 22.78-5.8 22.78-19.247v-19.643c0-13.71-11.025-19.71-22.78-19.71zm-107.553-.79c-12.15 0-24.23 6.59-24.23 20.103v19.973c0 13.383 12.147 20.106 24.362 20.106 12.147 0 24.23-6.723 24.23-20.104V110.12c0-13.446-12.215-20.104-24.364-20.104zm9.508 40.076c0 4.22-4.754 6.396-9.442 6.396-4.754 0-9.508-2.044-9.508-6.394V110.12c0-4.284 4.622-6.59 9.244-6.59 4.82 0 9.704 2.042 9.704 6.59v19.973zm67.94-19.97c-.33-13.71-9.707-19.248-21.79-19.248h-23.438v58.534h14.988v-18.588h2.64l13.602 18.588h18.487L499.296 129.3c7.064-2.24 11.488-8.372 11.488-19.182zm-21.525 7.91h-8.715v-13.38h8.715c9.31 0 9.31 13.38 0 13.38z" fill="#FFF"/><g opacity=".1" transform="translate(5 2)"><use stroke="#7289DA" stroke-width="2" xlink:href="#a"/><use xlink:href="#a"/><use fill-opacity=".3" fill="#7289DA" xlink:href="#a"/></g><path d="M51.146 273.268l-2.548-4.438h1.554l1.19 2.184.336.644.378.728h.056c.13-.27.245-.513.343-.728.098-.215.203-.43.315-.644l1.148-2.184h1.484l-2.548 4.508L55.57 278h-1.54l-1.288-2.31c-.13-.233-.26-.47-.385-.707-.126-.238-.26-.497-.4-.777h-.055c-.13.28-.257.54-.378.777-.12.238-.243.474-.364.707L49.9 278h-1.47l2.716-4.732zM595.646 273.268l-2.548-4.438h1.554l1.19 2.184.336.644.378.728h.056c.13-.27.245-.513.343-.728.098-.215.203-.43.315-.644l1.148-2.184h1.484l-2.548 4.508L600.07 278h-1.54l-1.288-2.31c-.13-.233-.26-.47-.385-.707-.126-.238-.26-.497-.4-.777h-.055c-.13.28-.257.54-.378.777-.12.238-.243.474-.364.707L594.4 278h-1.47l2.716-4.732zM8.646 30.268L6.098 25.83h1.554l1.19 2.184.336.644.378.728h.056c.13-.27.245-.513.343-.728.098-.215.203-.43.315-.644l1.148-2.184h1.484l-2.548 4.508L13.07 35h-1.54l-1.288-2.31c-.13-.233-.26-.47-.385-.707-.126-.238-.26-.497-.4-.777h-.055c-.13.28-.257.54-.378.777-.12.238-.243.474-.364.707L7.4 35H5.93l2.716-4.732z" opacity=".5" fill="#7289DA"/><path opacity=".1" fill="#7289DA" d="M564 2h2v252h-2zM236 2h2v252h-2zm-35 0h2v252h-2zM82 2h2v252h-2z"/><path fill="#7289DA" d="M18 195h4v59h-4zM203 256h33v4h-33zM3.028 225.64l-2.864-5.072h2.64l1.008 1.968.368.776c.128.272.272.573.432.904h.064c.128-.33.248-.632.36-.904.112-.272.227-.53.344-.776l.928-1.968h2.528l-2.864 5.184L9.012 231H6.388l-1.136-2.128c-.15-.277-.288-.552-.416-.824l-.416-.888h-.064c-.128.32-.256.616-.384.888s-.256.547-.384.824L2.5 231H-.012l3.04-5.36zM209.812 273.31l-2.506-4.438h2.31l.882 1.722c.103.215.21.44.322.68.112.237.238.5.378.79h.056c.112-.29.217-.553.315-.79.096-.24.196-.465.3-.68l.81-1.722h2.213l-2.506 4.536 2.66 4.592h-2.296l-.993-1.862c-.13-.243-.252-.483-.364-.72l-.364-.778h-.057c-.112.28-.224.54-.336.777l-.336.72-.95 1.863h-2.2l2.66-4.69zm8.246 6.93h-1.722l4.606-12.18h1.722l-4.606 12.18zm6.454-3.416c.635-.532 1.213-1.03 1.736-1.49.523-.463.97-.895 1.344-1.296.373-.4.663-.78.868-1.134.205-.355.308-.69.308-1.008 0-.44-.126-.772-.378-1-.252-.23-.61-.344-1.078-.344-.355 0-.68.09-.973.273-.296.182-.57.394-.82.637l-1.107-1.106c.233-.233.464-.44.693-.616.23-.177.47-.324.728-.44.257-.118.527-.206.812-.267.285-.06.6-.09.945-.09.468 0 .89.067 1.275.202.383.135.712.327.987.574.275.245.49.542.644.887.154.345.23.733.23 1.162 0 .372-.088.753-.265 1.14-.176.387-.417.775-.72 1.162-.303.387-.65.775-1.043 1.162-.392.387-.803.768-1.232 1.14.252-.027.525-.053.82-.076.293-.024.557-.036.79-.036h2.114V278h-6.68v-1.176z"/><path fill-opacity=".102" fill="#7289DA" d="M84 60h117v2H84zm0 133h117v2H84zM203 60h33v2h-33zm0 133h33v2h-33zm35-133h326v2H238zm0 133h326v2H238zM24 60h58v2H24zm0 133h58v2H24zM566 60h58v2h-58zm0 133h58v2h-58z"/></g></svg>
