<svg xmlns="http://www.w3.org/2000/svg" xmlns:xlink="http://www.w3.org/1999/xlink" width="140" height="96" viewBox="0 0 140 96">
  <defs>
    <polygon id="img_1080p_light-a" points="0 .624 28.875 .624 28.875 2.624 0 2.624"/>
    <polygon id="img_1080p_light-c" points="0 90.335 141.154 90.335 141.154 0 0 0"/>
  </defs>
  <g fill="none" fill-rule="evenodd">
    <g transform="translate(-1 3)">
      <path fill="#B9BBBE" d="M11.2552,28.9523 L22.9582,28.9523 C23.5102,28.9523 23.9582,28.5043 23.9582,27.9523 C23.9582,27.4003 23.5102,26.9523 22.9582,26.9523 L11.2552,26.9523 C10.7032,26.9523 10.2552,27.4003 10.2552,27.9523 C10.2552,28.5043 10.7032,28.9523 11.2552,28.9523"/>
      <g transform="translate(0 32.335)">
        <mask id="img_1080p_light-b" fill="#fff">
          <use xlink:href="#img_1080p_light-a"/>
        </mask>
        <path fill="#B9BBBE" d="M0.9999,0.624 C0.4479,0.624 -0.0001,1.072 -0.0001,1.624 C-0.0001,2.176 0.4479,2.624 0.9999,2.624 L28.8749,2.624 L28.8749,0.624 L0.9999,0.624 Z" mask="url(#img_1080p_light-b)"/>
      </g>
      <path fill="#B9BBBE" d="M8.2552 59.9586C7.7032 59.9586 7.2552 60.4066 7.2552 60.9586 7.2552 61.5106 7.7032 61.9586 8.2552 61.9586L28.8752 61.9586 28.8752 59.9586 8.2552 59.9586zM24.6712 64.9586L18.9692 64.9586C18.4172 64.9586 17.9692 65.4066 17.9692 65.9586 17.9692 66.5106 18.4172 66.9586 18.9692 66.9586L24.6712 66.9586C25.2232 66.9586 25.6712 66.5106 25.6712 65.9586 25.6712 65.4066 25.2232 64.9586 24.6712 64.9586M13.2552 48.9586C13.2552 49.5106 13.7032 49.9586 14.2552 49.9586L23.9582 49.9586C24.5102 49.9586 24.9582 49.5106 24.9582 48.9586 24.9582 48.4066 24.5102 47.9586 23.9582 47.9586L14.2552 47.9586C13.7032 47.9586 13.2552 48.4066 13.2552 48.9586M12.9789 42.6251L11.1269 42.6251C10.5749 42.6251 10.1269 43.0731 10.1269 43.6251 10.1269 44.1771 10.5749 44.6251 11.1269 44.6251L12.9789 44.6251C13.5309 44.6251 13.9789 44.1771 13.9789 43.6251 13.9789 43.0731 13.5309 42.6251 12.9789 42.6251M17.2084 42.6251C16.6564 42.6251 16.2084 43.0731 16.2084 43.6251 16.2084 44.1771 16.6564 44.6251 17.2084 44.6251L28.8754 44.6251 28.8754 42.6251 17.2084 42.6251z"/>
      <mask id="img_1080p_light-d" fill="#fff">
        <use xlink:href="#img_1080p_light-c"/>
      </mask>
      <polygon fill="#EBEFF7" points="79.875 83.335 86.875 83.335 86.875 77.992 79.875 77.992" mask="url(#img_1080p_light-d)"/>
      <polygon fill="#7687B2" points="66.875 83.335 79.875 83.335 79.875 77.992 66.875 77.992" mask="url(#img_1080p_light-d)"/>
      <polygon fill="#EBEFF7" points="87.875 85.335 87.875 85.335 87.875 88.335 89.753 88.335 96.875 88.335 96.875 85.335 89.875 85.335" mask="url(#img_1080p_light-d)"/>
      <polygon fill="#7687B2" points="87.875 85.335 87.875 85.335 64.875 85.335 58.875 85.335 58.875 88.335 67.875 88.335 87.875 88.335" mask="url(#img_1080p_light-d)"/>
      <path fill="#EBEFF7" d="M113.8749,55.4025 C114.4269,55.4025 114.8749,55.8505 114.8749,56.4025 L114.8749,57.1585 C114.8749,57.7105 114.4269,58.1585 113.8749,58.1585 L113.8749,63.9715 C113.8999,63.9855 113.9269,63.9945 113.9519,64.0075 C114.2029,64.0275 114.4289,64.1305 114.5939,64.3015 C115.6499,64.7415 116.7549,64.9915 117.8749,64.9915 C118.4269,64.9915 118.8749,65.4395 118.8749,65.9915 C118.8749,66.5445 118.4269,66.9915 117.8749,66.9915 C116.8549,66.9915 115.8459,67.1995 114.8749,67.5675 L114.8749,72.9915 C114.8749,74.1215 114.4839,75.1535 113.8499,75.9915 L118.8749,75.9915 C120.5289,75.9915 121.8749,74.6465 121.8749,72.9915 L121.8749,20.9915 C121.8749,19.3375 120.5289,17.9915 118.8749,17.9915 L113.8499,17.9915 C114.4839,18.8305 114.8749,19.8615 114.8749,20.9915 L114.8749,51.6585 C114.8749,52.2105 114.4269,52.6585 113.8749,52.6585 L113.8749,55.4025 Z" mask="url(#img_1080p_light-d)"/>
      <path fill="#7687B2" d="M46.0106 17.9918C42.7666 17.9918 39.6866 21.1638 39.0406 24.8488L105.9906 24.8488C106.5426 24.8488 106.9906 25.2968 106.9906 25.8488L106.9906 53.8608C107.5556 58.2088 110.3606 62.1738 113.8746 63.9718L113.8746 58.1588C113.3226 58.1588 112.8746 57.7108 112.8746 57.1588L112.8746 56.4028C112.8746 55.8498 113.3226 55.4028 113.8746 55.4028L113.8746 52.6588C113.3226 52.6588 112.8746 52.2108 112.8746 51.6588L112.8746 20.9918C112.8746 19.3378 111.5296 17.9918 109.8746 17.9918L102.9286 17.9918 52.0946 17.9918C51.5426 17.9918 51.0946 17.5438 51.0946 16.9918L47.0106 16.9918C47.0106 17.5438 46.5626 17.9918 46.0106 17.9918M112.8749 72.9918L112.8749 68.5908C110.3959 70.2128 108.3809 72.9178 107.4449 75.9918L109.8749 75.9918C111.5319 75.9918 112.8749 74.6488 112.8749 72.9918" mask="url(#img_1080p_light-d)"/>
      <path fill="#7687B2" d="M38.7591,68.9918 C38.2071,68.9918 37.7591,68.5438 37.7591,67.9918 L37.7591,27.2178 C37.2821,27.1418 36.9101,26.7468 36.9101,26.2488 C36.9101,22.9378 34.8081,19.7778 32.1521,18.5428 C31.3821,19.0868 30.8751,19.9798 30.8751,20.9918 L30.8751,72.9918 C30.8751,74.6458 32.2201,75.9918 33.8751,75.9918 L66.8751,75.9918 L104.3051,75.9918 C103.4411,73.1538 101.6531,70.6388 99.4321,68.9918 L38.7591,68.9918 Z" mask="url(#img_1080p_light-d)"/>
      <path fill="#040405" d="M114.8749,57.1583 L114.8749,56.4023 C114.8749,55.8503 114.4269,55.4023 113.8749,55.4023 C113.3229,55.4023 112.8749,55.8503 112.8749,56.4023 L112.8749,57.1583 C112.8749,57.7103 113.3229,58.1583 113.8749,58.1583 C114.4269,58.1583 114.8749,57.7103 114.8749,57.1583" mask="url(#img_1080p_light-d)"/>
      <path fill="#4F5D7F" d="M98.3749,56.8488 C98.3749,58.5028 97.0289,59.8488 95.3749,59.8488 L50.3749,59.8488 C48.7209,59.8488 47.3749,58.5028 47.3749,56.8488 L47.3749,34.8488 C47.3749,33.1948 48.7209,31.8488 50.3749,31.8488 L95.3749,31.8488 C97.0289,31.8488 98.3749,33.1948 98.3749,34.8488 L98.3749,56.8488 Z M105.9909,24.8488 L39.0409,24.8488 C38.9599,25.3098 38.9109,25.7768 38.9109,26.2488 C38.9109,26.8008 38.4629,27.2488 37.9109,27.2488 C37.8569,27.2488 37.8109,27.2258 37.7589,27.2178 L37.7589,67.9918 C37.7589,68.5438 38.2069,68.9918 38.7589,68.9918 L99.4319,68.9918 C97.7549,67.7478 95.8369,66.9918 93.8749,66.9918 C93.3229,66.9918 92.8749,66.5438 92.8749,65.9918 C92.8749,65.4398 93.3229,64.9918 93.8749,64.9918 C99.5289,64.9918 104.8749,58.8128 104.8749,52.2778 C104.8749,51.7248 105.3229,51.2778 105.8749,51.2778 C106.4269,51.2778 106.8749,51.7248 106.8749,52.2778 C106.8749,52.8088 106.9229,53.3368 106.9909,53.8608 L106.9909,25.8488 C106.9909,25.2968 106.5429,24.8488 105.9909,24.8488 Z" mask="url(#img_1080p_light-d)"/>
      <path fill="#FFD773" d="M113.4232 65.9918C110.0922 64.4738 107.2942 61.3678 105.8752 57.6328 104.4562 61.3678 101.6572 64.4738 98.3262 65.9918 101.6572 67.5098 104.4562 70.6158 105.8752 74.3508 107.2942 70.6158 110.0922 67.5098 113.4232 65.9918M33.5301 16.9918C35.3841 18.0138 36.9541 19.7408 37.9101 21.8048 38.8671 19.7408 40.4361 18.0138 42.2911 16.9918 40.4361 15.9698 38.8671 14.2418 37.9101 12.1788 36.9541 14.2418 35.3841 15.9698 33.5301 16.9918" mask="url(#img_1080p_light-d)"/>
      <path fill="#B9BBBE" d="M53.2518 2.1583C53.3978 2.1583 53.5438 2.0943 53.6418 1.9713L54.5728.8123C54.7458.5973 54.7118.2833 54.4968.1103 54.2808-.0627 53.9668-.0287 53.7938.1863L52.8628 1.3453C52.6898 1.5603 52.7238 1.8753 52.9398 2.0483 53.0318 2.1223 53.1418 2.1583 53.2518 2.1583M49.1078 5.028L48.1768 6.187C48.0038 6.402 48.0378 6.716 48.2538 6.889 48.3458 6.964 48.4558 7 48.5658 7 48.7118 7 48.8578 6.936 48.9558 6.813L49.8868 5.654C50.0598 5.439 50.0258 5.124 49.8108 4.951 49.5948 4.779 49.2808 4.813 49.1078 5.028M53.0336 4.8727C52.8286 5.0587 52.8136 5.3747 52.9986 5.5797L54.0046 6.6887C54.1026 6.7977 54.2386 6.8527 54.3746 6.8527 54.4946 6.8527 54.6156 6.8097 54.7106 6.7237 54.9156 6.5377 54.9306 6.2217 54.7456 6.0167L53.7406 4.9077C53.5546 4.7027 53.2376 4.6887 53.0336 4.8727M49.0096 2.0919C49.1086 2.2009 49.2436 2.2569 49.3806 2.2569 49.4996 2.2569 49.6196 2.2139 49.7156 2.1269 49.9206 1.9419 49.9366 1.6259 49.7506 1.4209L48.7456.3109C48.5606.1049 48.2436.0919 48.0396.2759 47.8346.4619 47.8186.7779 48.0046.9819L49.0096 2.0919z" mask="url(#img_1080p_light-d)"/>
      <path fill="#EBEFF7" d="M95.3749,33.8488 L50.3749,33.8488 C49.8239,33.8488 49.3749,34.2978 49.3749,34.8488 L49.3749,56.8488 C49.3749,57.3998 49.8239,57.8488 50.3749,57.8488 L95.3749,57.8488 C95.9259,57.8488 96.3749,57.3998 96.3749,56.8488 L96.3749,34.8488 C96.3749,34.2978 95.9259,33.8488 95.3749,33.8488" mask="url(#img_1080p_light-d)"/>
      <path fill="#040405" d="M96.3749,56.8488 C96.3749,57.3998 95.9259,57.8488 95.3749,57.8488 L50.3749,57.8488 C49.8239,57.8488 49.3749,57.3998 49.3749,56.8488 L49.3749,34.8488 C49.3749,34.2978 49.8239,33.8488 50.3749,33.8488 L95.3749,33.8488 C95.9259,33.8488 96.3749,34.2978 96.3749,34.8488 L96.3749,56.8488 Z M95.3749,31.8488 L50.3749,31.8488 C48.7209,31.8488 47.3749,33.1948 47.3749,34.8488 L47.3749,56.8488 C47.3749,58.5028 48.7209,59.8488 50.3749,59.8488 L95.3749,59.8488 C97.0289,59.8488 98.3749,58.5028 98.3749,56.8488 L98.3749,34.8488 C98.3749,33.1948 97.0289,31.8488 95.3749,31.8488 Z" mask="url(#img_1080p_light-d)"/>
      <path fill="#B9BBBE" d="M138.2167 38.7623C137.1487 38.7623 136.2797 37.8933 136.2797 36.8253 136.2797 35.7573 137.1487 34.8873 138.2167 34.8873 139.2847 34.8873 140.1537 35.7573 140.1537 36.8253 140.1537 37.8933 139.2847 38.7623 138.2167 38.7623M138.2167 33.8873C136.5967 33.8873 135.2787 35.2053 135.2787 36.8253 135.2787 38.4453 136.5967 39.7623 138.2167 39.7623 139.8367 39.7623 141.1537 38.4453 141.1537 36.8253 141.1537 35.2053 139.8367 33.8873 138.2167 33.8873M134.6537 28.7863C133.5837 28.7863 132.7167 27.9193 132.7167 26.8493 132.7167 26.5723 132.4927 26.3483 132.2167 26.3483 131.9407 26.3483 131.7167 26.5723 131.7167 26.8493 131.7167 27.9193 130.8497 28.7863 129.7797 28.7863L129.7787 28.7863C129.5027 28.7863 129.2787 29.0103 129.2787 29.2863 129.2787 29.5623 129.5027 29.7863 129.7787 29.7863L129.7797 29.7863C130.8497 29.7863 131.7167 30.6533 131.7167 31.7233 131.7167 31.9993 131.9407 32.2233 132.2167 32.2233 132.4927 32.2233 132.7167 31.9993 132.7167 31.7233 132.7167 30.6533 133.5837 29.7863 134.6537 29.7863 134.9297 29.7863 135.1537 29.5623 135.1537 29.2863 135.1537 29.0103 134.9297 28.7863 134.6537 28.7863" mask="url(#img_1080p_light-d)"/>
      <path fill="#040405" d="M58.0238 47.3756C58.0238 45.9466 54.7048 45.9616 54.7048 47.3756L54.7048 47.9366C54.7048 49.3516 58.0238 49.3646 58.0238 47.9366L58.0238 47.3756zM58.6648 43.2626C58.3318 43.4046 57.9698 43.2956 57.7038 43.0516 56.7208 42.1536 54.7048 42.6496 54.7048 43.7896L54.7048 45.2186C56.3848 43.4816 59.9998 44.7006 59.9998 47.3616L59.9998 47.9506C59.9998 49.9536 58.2348 50.9616 56.3848 50.9616 54.5368 50.9766 52.7148 49.9676 52.7148 47.9506L52.7148 43.7756C52.7148 41.7596 54.5368 40.7506 56.3848 40.7646 57.3738 40.7646 58.3098 41.0666 59.0588 41.8066 59.4908 42.2326 59.3598 42.9646 58.8018 43.2036L58.6648 43.2626zM62.974 47.9645C63.086 49.4065 66.083 49.4065 66.196 47.9645L66.196 43.7765C66.083 42.3055 63.086 42.3055 62.974 43.7765L62.974 47.9645zM60.999 47.9645L60.999 43.7765C60.999 41.6895 62.904 40.7645 64.585 40.7645 66.28 40.7645 68.171 41.6895 68.171 43.7765L68.171 47.9645C68.171 50.0375 66.28 50.9615 64.585 50.9615 62.904 50.9615 60.999 50.0375 60.999 47.9645zM73.0917 45.0924L75.4597 45.0924C75.9277 45.0924 76.3067 45.4714 76.3067 45.9394L76.3067 46.2764C76.3067 46.7444 75.9277 47.1234 75.4597 47.1234L73.0917 47.1234C72.6237 47.1234 72.2447 47.5024 72.2447 47.9704L72.2447 49.9744C72.2447 50.4424 71.8647 50.8214 71.3977 50.8214L71.0187 50.8214C70.5507 50.8214 70.1717 50.4424 70.1717 49.9744L70.1717 41.7524C70.1717 41.2834 70.5507 40.9054 71.0187 40.9054L76.0337 40.9054C76.5017 40.9054 76.8817 41.2834 76.8817 41.7524L76.8817 42.0604C76.8817 42.5284 76.5017 42.9074 76.0337 42.9074L73.0917 42.9074C72.6237 42.9074 72.2447 43.2864 72.2447 43.7554L72.2447 44.2454C72.2447 44.7134 72.6237 45.0924 73.0917 45.0924M81.7894 45.8209C83.7924 45.8209 83.8204 42.9779 81.7894 42.9779L80.7734 42.9779C80.3054 42.9779 79.9264 43.3569 79.9264 43.8249L79.9264 44.9739C79.9264 45.4419 80.3054 45.8209 80.7734 45.8209L81.7894 45.8209zM77.8814 41.7519C77.8814 41.2839 78.2604 40.9049 78.7284 40.9049L81.7894 40.9049C86.5384 40.9189 86.4814 47.7549 81.8034 47.7549L80.7734 47.7549C80.3054 47.7549 79.9264 48.1339 79.9264 48.6019L79.9264 49.9749C79.9264 50.4429 79.5464 50.8219 79.0794 50.8219L78.7284 50.8219C78.2604 50.8219 77.8814 50.4429 77.8814 49.9749L77.8814 41.7519z" mask="url(#img_1080p_light-d)"/>
      <path fill="#040405" d="M87.1708,48.3527 C87.4988,48.1017 87.9398,48.1487 88.2628,48.4057 C89.3758,49.2887 91.3018,49.1397 91.3738,47.9507 C91.4158,47.0967 90.4918,46.8997 89.4698,46.7597 C87.9138,46.5207 86.3038,45.7937 86.3318,43.6077 C86.4428,41.7307 88.1668,40.7507 89.9448,40.7507 C90.9258,40.7507 91.8728,41.0417 92.6338,41.7297 C93.0278,42.0857 92.9438,42.7357 92.5018,43.0317 L92.2128,43.2257 C91.8828,43.4457 91.4628,43.3867 91.1578,43.1317 C90.8048,42.8367 90.3878,42.6977 89.9448,42.6977 C89.1608,42.6977 88.4748,42.9917 88.4328,43.6787 L88.4328,43.6917 C88.4468,44.5047 89.2738,44.6167 90.1418,44.7987 C91.8638,45.1207 93.5458,45.7517 93.4468,48.0907 C93.2788,49.9537 91.4858,50.9617 89.6798,50.9617 C88.6708,50.9617 87.6448,50.5757 86.8428,49.8027 C86.4768,49.4497 86.5338,48.8407 86.9378,48.5317 L87.1708,48.3527 Z" mask="url(#img_1080p_light-d)"/>
      <path fill="#040405" d="M42.2909,16.9918 C40.4369,18.0138 38.8669,19.7408 37.9109,21.8048 C36.9539,19.7408 35.3849,18.0138 33.5299,16.9918 C35.3849,15.9698 36.9539,14.2418 37.9109,12.1788 C38.8669,14.2418 40.4369,15.9698 42.2909,16.9918 Z M79.8749,83.3348 L69.5459,83.3348 C68.0709,83.3348 66.8749,82.1388 66.8749,80.6628 L66.8749,78.9918 C66.8749,78.4398 67.3229,77.9918 67.8749,77.9918 L79.8749,77.9918 L85.8749,77.9918 C86.4269,77.9918 86.8749,78.4398 86.8749,78.9918 L86.8749,80.6628 C86.8749,82.1388 85.6789,83.3348 84.2039,83.3348 L79.8749,83.3348 Z M96.8749,86.8348 C96.8749,87.6628 96.2039,88.3348 95.3749,88.3348 L89.7529,88.3348 L87.8749,88.3348 L67.8749,88.3348 L60.3749,88.3348 C59.5469,88.3348 58.8749,87.6628 58.8749,86.8348 C58.8749,86.0058 59.5469,85.3348 60.3749,85.3348 L64.8749,85.3348 L87.8749,85.3348 L89.8749,85.3348 L95.3749,85.3348 C96.2039,85.3348 96.8749,86.0058 96.8749,86.8348 Z M112.8749,71.1038 L112.8749,72.9918 C112.8749,74.6488 111.5319,75.9918 109.8749,75.9918 L108.8809,75.9918 C108.1659,75.9918 107.6719,75.2578 107.9529,74.5988 C108.6519,72.9568 109.6589,71.4638 110.8639,70.2438 C111.5989,69.4998 112.8749,70.0578 112.8749,71.1038 Z M98.3269,65.9918 C101.6569,64.4738 104.4559,61.3678 105.8749,57.6328 C107.2939,61.3678 110.0929,64.4738 113.4229,65.9918 C110.0929,67.5098 107.2939,70.6158 105.8749,74.3508 C104.4559,70.6158 101.6569,67.5098 98.3269,65.9918 Z M118.8749,15.9918 L109.8749,15.9918 L102.9289,15.9918 L52.0949,15.9918 C51.5429,15.9918 51.0949,16.4398 51.0949,16.9918 C51.0949,17.5438 51.5429,17.9918 52.0949,17.9918 L102.9289,17.9918 L109.8749,17.9918 C111.5319,17.9918 112.8749,19.3348 112.8749,20.9918 L112.8749,51.6588 C112.8749,52.2108 113.3229,52.6588 113.8749,52.6588 C114.4269,52.6588 114.8749,52.2108 114.8749,51.6588 L114.8749,26.9918 L114.8749,26.9578 C114.8689,25.3268 116.1999,23.9918 117.8309,23.9918 L118.8749,23.9918 C120.5319,23.9918 121.8749,25.3348 121.8749,26.9918 L121.8749,72.9918 C121.8749,74.6488 120.5319,75.9918 118.8749,75.9918 L117.6749,75.9918 C116.1239,75.9918 114.8689,74.7318 114.8739,73.1818 L114.8749,72.9918 L114.8749,69.9678 C114.8749,68.3258 116.2039,66.9948 117.8449,66.9918 L117.8749,66.9918 C118.4269,66.9918 118.8749,66.5438 118.8749,65.9918 C118.8749,65.4398 118.4269,64.9918 117.8749,64.9918 C116.7549,64.9918 115.6499,64.7418 114.5939,64.3018 C114.4289,64.1308 114.2029,64.0278 113.9519,64.0078 C113.9269,63.9948 113.8999,63.9848 113.8749,63.9718 C110.3599,62.1738 107.5559,58.2088 106.9909,53.8608 C106.9229,53.3368 106.8749,52.8088 106.8749,52.2778 C106.8749,51.7248 106.4269,51.2778 105.8749,51.2778 C105.3229,51.2778 104.8749,51.7248 104.8749,52.2778 C104.8749,58.8128 99.5289,64.9918 93.8749,64.9918 C93.3229,64.9918 92.8749,65.4398 92.8749,65.9918 C92.8749,66.5438 93.3229,66.9918 93.8749,66.9918 C95.8369,66.9918 97.7549,67.7478 99.4319,68.9918 C101.2839,70.3658 102.8339,72.3418 103.7999,74.6068 C104.0799,75.2618 103.5829,75.9918 102.8709,75.9918 L66.8749,75.9918 L33.8749,75.9918 C32.2179,75.9918 30.8749,74.6488 30.8749,72.9918 L30.8749,20.9918 L30.8749,20.9618 C30.8829,19.4298 32.6799,18.6448 33.8399,19.6458 C35.6459,21.2038 36.9109,23.6808 36.9109,26.2488 C36.9109,26.7468 37.2819,27.1418 37.7589,27.2178 C37.8109,27.2258 37.8569,27.2488 37.9109,27.2488 C38.4629,27.2488 38.9109,26.8008 38.9109,26.2488 C38.9109,25.7768 38.9599,25.3098 39.0409,24.8488 C39.6869,21.1638 42.7669,17.9918 46.0109,17.9918 C46.5629,17.9918 47.0109,17.5438 47.0109,16.9918 C47.0109,16.4398 46.5629,15.9918 46.0109,15.9918 C42.3609,15.9918 38.9109,11.9788 38.9109,7.7348 C38.9109,7.1818 38.4629,6.7348 37.9109,6.7348 C37.3579,6.7348 36.9109,7.1818 36.9109,7.7348 C36.9109,11.9788 33.4599,15.9918 29.8109,15.9918 C29.2579,15.9918 28.8109,16.4398 28.8109,16.9918 C28.8109,17.5708 29.3029,18.0348 29.8909,17.9888 C29.8949,17.9938 29.8929,17.9918 29.8959,17.9978 C29.2639,18.8348 28.8749,19.8648 28.8749,20.9918 L28.8749,32.9588 L28.8749,34.9588 L28.8749,42.6248 L28.8749,44.6248 L28.8749,59.9588 L28.8749,61.9588 L28.8749,72.9918 C28.8749,75.7528 31.1139,77.9918 33.8749,77.9918 L63.8749,77.9918 C64.4269,77.9918 64.8749,78.4398 64.8749,78.9918 L64.8749,80.6628 C64.8749,82.1388 63.6789,83.3348 62.2039,83.3348 L58.8749,83.3348 C57.7699,83.3348 56.8749,84.2298 56.8749,85.3348 L56.8749,88.3348 C56.8749,89.4388 57.7699,90.3348 58.8749,90.3348 L67.8749,90.3348 L89.7529,90.3348 L96.8749,90.3348 C97.9789,90.3348 98.8749,89.4388 98.8749,88.3348 L98.8749,85.3348 C98.8749,84.2298 97.9789,83.3348 96.8749,83.3348 L91.5459,83.3348 C90.0709,83.3348 88.8749,82.1388 88.8749,80.6628 L88.8749,78.9918 C88.8749,78.4398 89.3229,77.9918 89.8749,77.9918 L104.7399,77.9918 C104.8199,78.5588 104.8749,79.1298 104.8749,79.7058 C104.8749,80.2588 105.3229,80.7058 105.8749,80.7058 C106.4269,80.7058 106.8749,80.2588 106.8749,79.7058 C106.8749,79.1298 106.9309,78.5588 107.0099,77.9918 L109.8749,77.9918 L118.8749,77.9918 C121.6369,77.9918 123.8749,75.7528 123.8749,72.9918 L123.8749,20.9918 C123.8749,18.2308 121.6369,15.9918 118.8749,15.9918 Z" mask="url(#img_1080p_light-d)"/>
    </g>
    <rect width="140" height="96"/>
  </g>
</svg>
