<svg width="140" height="151" viewBox="0 0 140 151" xmlns="http://www.w3.org/2000/svg" xmlns:xlink="http://www.w3.org/1999/xlink"><title>Group</title><defs><path id="a" d="M17 0h122v129H17z"/></defs><g fill="none" fill-rule="evenodd"><path opacity=".1" fill="#7289DA" d="M106 2h2v129h-2zM46 2h2v129h-2zM48 32h58v2H48zm-32 0h30v2H16zm92 0h30v2h-30zM48 99h58v2H48zm-32 0h30v2H16zm92 0h30v2h-30z"/><g fill="#FFF"><path d="M82.768 61.333c-1.856 0-3.32 1.592-3.32 3.575 0 1.982 1.497 3.575 3.32 3.575 1.856 0 3.32-1.593 3.32-3.575 0-1.983-1.497-3.575-3.32-3.575zm-11.882 0c-1.856 0-3.32 1.592-3.32 3.575 0 1.982 1.497 3.575 3.32 3.575 1.855 0 3.32-1.593 3.32-3.575.033-1.983-1.465-3.575-3.32-3.575z"/><path d="M98.59 34.293H54.966c-3.68 0-6.674 2.99-6.674 6.662v43.55c0 3.673 2.995 6.663 6.674 6.663h36.916l-1.725-5.947 4.167 3.837 3.94 3.607 7.03 6.078V40.957c-.032-3.673-3.027-6.663-6.706-6.663zM86.022 76.38s-1.17-1.397-2.148-2.6c4.264-1.202 5.892-3.834 5.892-3.834-1.335.877-2.604 1.495-3.744 1.917-1.627.683-3.19 1.105-4.72 1.398-3.125.587-5.99.424-8.43-.03-1.857-.358-3.452-.846-4.787-1.398-.75-.292-1.563-.65-2.376-1.104-.1-.065-.197-.098-.294-.163-.066-.032-.098-.065-.13-.065-.587-.325-.912-.552-.912-.552s1.562 2.567 5.697 3.802c-.976 1.235-2.18 2.665-2.18 2.665-7.195-.227-9.93-4.907-9.93-4.907 0-10.368 4.688-18.786 4.688-18.786 4.687-3.477 9.115-3.38 9.115-3.38l.325.39c-5.86 1.658-8.53 4.225-8.53 4.225s.717-.39 1.922-.91c3.483-1.527 6.25-1.917 7.39-2.047.195-.033.358-.065.553-.065 1.986-.26 4.232-.325 6.576-.065 3.093.357 6.413 1.267 9.8 3.087 0 0-2.573-2.437-8.107-4.095l.455-.52s4.46-.097 9.115 3.38c0 0 4.688 8.418 4.688 18.786 0-.033-2.734 4.647-9.93 4.875z"/></g><path d="M1.89 15.62L.07 12.45h1.11l.85 1.56.24.46.27.52h.04c.093-.193.175-.367.245-.52.07-.153.145-.307.225-.46l.82-1.56h1.06l-1.82 3.22L5.05 19h-1.1l-.92-1.65c-.093-.167-.185-.335-.275-.505-.09-.17-.185-.355-.285-.555h-.04c-.093.2-.183.385-.27.555l-.26.505L1 19H-.05l1.94-3.38zm0 100l-1.82-3.17h1.11l.85 1.56.24.46.27.52h.04c.093-.193.175-.367.245-.52.07-.153.145-.307.225-.46l.82-1.56h1.06l-1.82 3.22L5.05 119h-1.1l-.92-1.65c-.093-.167-.185-.335-.275-.505-.09-.17-.185-.355-.285-.555h-.04c-.093.2-.183.385-.27.555l-.26.505L1 119H-.05l1.94-3.38z" opacity=".5" fill="#7289DA"/><g opacity=".1" transform="translate(-1 2)"><use stroke="#7289DA" stroke-width="2" xlink:href="#a"/><use xlink:href="#a"/><use fill-opacity=".3" fill="#7289DA" xlink:href="#a"/></g><path d="M30.89 147.62l-1.82-3.17h1.11l.85 1.56.24.46.27.52h.04c.093-.193.175-.367.245-.52.07-.153.145-.307.225-.46l.82-1.56h1.06l-1.82 3.22 1.94 3.33h-1.1l-.92-1.65c-.093-.167-.185-.335-.275-.505-.09-.17-.185-.355-.285-.555h-.04c-.093.2-.183.385-.27.555l-.26.505L30 151h-1.05l1.94-3.38zm92 0l-1.82-3.17h1.11l.85 1.56.24.46.27.52h.04c.093-.193.175-.367.245-.52.07-.153.145-.307.225-.46l.82-1.56h1.06l-1.82 3.22 1.94 3.33h-1.1l-.92-1.65c-.093-.167-.185-.335-.275-.505-.09-.17-.185-.355-.285-.555h-.04c-.093.2-.183.385-.27.555l-.26.505-.9 1.65h-1.05l1.94-3.38z" opacity=".5" fill="#7289DA"/></g></svg>
