<?xml version="1.0" encoding="UTF-8" standalone="no"?>
<svg width="353px" height="38px" viewBox="0 0 353 38" version="1.1" xmlns="http://www.w3.org/2000/svg" xmlns:xlink="http://www.w3.org/1999/xlink" xmlns:sketch="http://www.bohemiancoding.com/sketch/ns">
    <!-- Generator: Sketch 3.4.4 (17249) - http://www.bohemiancoding.com/sketch -->
    <title>BRAND</title>
    <desc>Created with Sketch.</desc>
    <defs></defs>
    <g id="Page-1" stroke="none" stroke-width="1" fill="none" fill-rule="evenodd" sketch:type="MSPage">
        <g id="Artboard-1" sketch:type="MSArtboardGroup" transform="translate(-457.000000, -188.000000)" stroke="#FFFFFF" fill="#FFFFFF">
            <path d="M676.75,206.2 L678.3,205.35 C680.75,203.9 681.85,201.2 681.85,198.2 C681.85,192.6 677.8,189.6 672.6,189.6 L659.65,189.6 L659.65,225 L672.55,225 C678.7,225 683.4,222.85 683.55,215.55 C683.6,212.4 682.4,208.45 678.5,206.8 L676.75,206.2 Z M660.9,205.65 L660.9,190.75 L672.6,190.75 C677.1,190.75 680.65,193.3 680.65,198.25 C680.65,203.35 677.25,205.65 672.6,205.65 L660.9,205.65 Z M660.9,223.8 L660.9,206.85 L672.6,206.85 C678.55,206.8 682.3,209.3 682.3,215.5 C682.3,221.65 678.25,223.9 672.6,223.8 L660.9,223.8 Z M713.9125,225 L701.9625,209.2 L703.8625,209.2 C710.3125,209.2 714.8125,206.55 714.8125,199.2 C714.6625,192 709.9625,189.6 703.8125,189.6 L691.3125,189.6 L691.3125,225 L692.5125,225 L692.5125,209.2 L700.5625,209.2 L712.4625,225 L713.9125,225 Z M692.5125,208.1 L692.5125,190.75 L703.8625,190.75 C709.5125,190.65 713.6125,192.85 713.6125,199.25 C713.6125,205.5 710.3125,208.1 703.8625,208.1 L692.5125,208.1 Z M724.125,212.35 L740.225,212.35 L744.925,225 L746.275,225 L733.175,189.6 L731.175,189.6 L718.075,225 L719.425,225 L724.125,212.35 Z M732.275,190.8 L739.775,211.1 L724.575,211.1 L732.075,190.8 L732.275,190.8 Z M754.0875,189.6 L752.1375,189.6 L752.1375,225 L753.4375,225 L753.4875,191.2 L774.2375,225 L776.3875,225 L776.3875,189.6 L775.1375,189.6 L775.1375,223.8 L754.0875,189.6 Z M786,189.6 L786,225 L797.95,225 C804.15,225 809.35,222.2 809.35,215.55 L809.35,199.1 C809.35,192.4 804.15,189.6 797.95,189.6 L786,189.6 Z M787.25,223.75 L787.25,190.85 L797.95,190.85 C803.55,190.85 808.1,193.2 808.1,199.1 L808.1,215.55 C808.1,221.4 803.55,223.75 797.95,223.75 L787.25,223.75 Z M471.023577,189.508696 L458,189.508696 L458,204.221739 L466.669309,212.047826 L466.669309,197.765217 L471.337398,197.765217 C474.279472,197.765217 475.730894,199.213043 475.730894,201.482609 L475.730894,212.4 C475.730894,214.669565 474.357927,216.195652 471.337398,216.195652 L458,216.195652 L458,224.491304 L471.023577,224.491304 C478.006098,224.530435 484.557114,221.047826 484.557114,212.986957 L484.557114,201.208696 C484.557114,193.069565 478.006098,189.508696 471.023577,189.508696 L471.023577,189.508696 Z M539.318902,213.026087 L539.318902,200.973913 C539.318902,196.630435 547.085976,195.613043 549.439634,199.995652 L556.618293,197.06087 C553.83313,190.83913 548.655081,189 544.379268,189 C537.396748,189 530.492683,193.069565 530.492683,200.973913 L530.492683,213.026087 C530.492683,220.969565 537.396748,225 544.222358,225 C548.615854,225 553.872358,222.808696 556.775203,217.134783 L549.086585,213.573913 C547.203659,218.426087 539.318902,217.252174 539.318902,213.026087 L539.318902,213.026087 Z M515.546951,202.617391 C512.840244,202.030435 511.035772,201.052174 510.918089,199.369565 C511.075,195.3 517.312195,195.182609 520.960366,199.056522 L526.726829,194.595652 C523.117886,190.173913 519.038211,189 514.801626,189 C508.40752,189 502.209553,192.6 502.209553,199.486957 C502.209553,206.178261 507.309146,209.73913 512.918699,210.6 C515.782317,210.991304 518.959756,212.126087 518.881301,214.121739 C518.645935,217.878261 510.957317,217.682609 507.466057,213.417391 L501.934959,218.66087 C505.190854,222.847826 509.623577,225 513.781707,225 C520.175813,225 527.276016,221.282609 527.55061,214.513043 C527.942886,205.904348 521.744919,203.752174 515.546951,202.617391 L515.546951,202.617391 Z M489.303659,224.491304 L498.09065,224.491304 L498.09065,189.508696 L489.303659,189.508696 L489.303659,224.491304 L489.303659,224.491304 Z M637.466463,189.508696 L624.442886,189.508696 L624.442886,204.221739 L633.112195,212.047826 L633.112195,197.765217 L637.741057,197.765217 C640.68313,197.765217 642.134553,199.213043 642.134553,201.482609 L642.134553,212.4 C642.134553,214.669565 640.761585,216.195652 637.741057,216.195652 L624.403659,216.195652 L624.403659,224.491304 L637.427236,224.491304 C644.409756,224.530435 650.960772,221.047826 650.960772,212.986957 L650.960772,201.208696 C651,193.069565 644.448984,189.508696 637.466463,189.508696 L637.466463,189.508696 Z M573.564634,189 C566.346748,189 559.168089,192.952174 559.168089,201.013043 L559.168089,212.986957 C559.168089,221.008696 566.385976,225 573.643089,225 C580.860976,225 588.039634,221.008696 588.039634,212.986957 L588.039634,201.013043 C588.039634,192.991304 580.78252,189 573.564634,189 L573.564634,189 Z M579.213415,212.986957 C579.213415,215.491304 576.389024,216.782609 573.603862,216.782609 C570.779472,216.782609 567.955081,215.530435 567.955081,212.986957 L567.955081,201.013043 C567.955081,198.430435 570.701016,197.06087 573.446951,197.06087 C576.310569,197.06087 579.213415,198.313043 579.213415,201.013043 L579.213415,212.986957 L579.213415,212.986957 Z M619.539431,201.013043 C619.343293,192.795652 613.772967,189.508696 606.594309,189.508696 L592.668496,189.508696 L592.668496,224.530435 L601.573171,224.530435 L601.573171,213.378261 L603.142276,213.378261 L611.223171,224.491304 L622.206911,224.491304 L612.713821,212.478261 C616.950407,211.147826 619.539431,207.508696 619.539431,201.013043 L619.539431,201.013043 Z M606.75122,205.747826 L601.573171,205.747826 L601.573171,197.765217 L606.75122,197.765217 C612.321545,197.765217 612.321545,205.747826 606.75122,205.747826 L606.75122,205.747826 Z" id="BRAND" sketch:type="MSShapeGroup"></path>
        </g>
    </g>
</svg>