<svg xmlns="http://www.w3.org/2000/svg" width="140" height="96" viewBox="0 0 140 96">
  <g fill="none" fill-rule="evenodd">
    <g transform="translate(5 8)">
      <path fill="#DCDDDE" d="M34.2331 12.4912C39.2041 16.7092 45.5181 19.2202 52.4931 19.7542 52.8391 19.7802 53.1961 19.7942 53.5611 19.7942 57.3821 19.7942 62.0371 18.3452 64.3351 15.3322 64.9301 14.5522 65.3421 13.6982 65.5591 12.7972 65.8491 11.5872 65.4311 10.3362 64.4691 9.5332 63.5021 8.7272 62.1911 8.5412 61.0511 9.0472 58.7311 10.0732 56.8231 10.7212 55.4551 10.9292 55.2071 10.9292 55.0001 10.7522 54.9621 10.5072 54.9191 10.2352 55.1061 9.9782 55.3781 9.9352 57.1611 9.6562 58.8841 9.1552 60.4991 8.4462 61.5221 7.9972 62.1571 7.0252 62.1571 5.9112 62.1581 4.8072 61.5291 3.8452 60.4781 3.3822 57.9131 2.2602 54.7471 2.2202 52.2531 3.2802 50.9041 3.8532 49.6741 4.6072 48.3721 5.4062 47.6901 5.8242 47.0071 6.2432 46.3091 6.6322 43.9841 7.9282 41.4891 8.9022 38.8921 9.5282 37.9971 9.7442 37.0881 9.9182 36.1911 10.0462L36.0381 10.0672C35.3801 10.1602 34.7581 10.2482 34.2621 10.5542L34.2611 10.5542C33.8361 10.8152 33.4811 11.3742 33.6501 11.8212 33.7421 12.0622 33.9791 12.2752 34.2331 12.4912M6.9997 26.0615C3.9667 26.0615 1.4997 28.5285 1.4997 31.5615L1.4997 43.8115C1.4997 46.8435 3.9667 49.3115 6.9997 49.3115 8.9297 49.3115 10.4997 47.7415 10.4997 45.8115L10.4997 29.5615C10.4997 27.6315 8.9297 26.0615 6.9997 26.0615M90.9997 26.0615C89.0697 26.0615 87.4997 27.6315 87.4997 29.5615L87.4997 45.8115C87.4997 47.7415 89.0697 49.3115 90.9997 49.3115 94.0327 49.3115 96.4997 46.8435 96.4997 43.8115L96.4997 31.5615C96.4997 28.5285 94.0327 26.0615 90.9997 26.0615"/>
      <path fill="#DCDDDE" d="M72.9997,11.9297 L72.8047,11.9297 C69.8517,11.9297 67.0627,13.3787 65.1307,15.9377 C62.3977,19.5227 57.1977,20.7937 53.5757,20.7937 C53.1777,20.7937 52.7907,20.7807 52.4167,20.7507 C45.2297,20.2007 38.7177,17.6087 33.5777,13.2477 C32.5787,12.3977 31.3267,11.9297 30.0547,11.9297 L24.9997,11.9297 C17.5557,11.9297 11.4997,17.9867 11.4997,25.4297 L11.4997,51.6307 C11.4997,59.0747 17.5557,65.1307 24.9997,65.1307 L72.9997,65.1307 C80.4437,65.1307 86.4997,59.0747 86.4997,51.6307 L86.4997,25.4297 C86.4997,17.9867 80.4437,11.9297 72.9997,11.9297"/>
      <path fill="#B9BBBE" d="M34.5242,10.9795 C34.9322,10.7285 35.5042,10.6475 36.1102,10.5625 L36.2612,10.5415 C37.1752,10.4105 38.1002,10.2335 39.0092,10.0145 L39.0102,10.0145 C41.6512,9.3775 44.1892,8.3865 46.5532,7.0685 C47.2572,6.6765 47.9452,6.2545 48.6332,5.8325 C49.9202,5.0435 51.1342,4.2995 52.4482,3.7415 C53.6172,3.2445 54.9052,2.9975 56.2062,2.9975 C57.5932,2.9975 58.9952,3.2785 60.2782,3.8405 L60.3162,3.8575 C62.1172,4.6495 62.0992,7.1975 60.2972,7.9885 C58.7362,8.6745 57.0582,9.1665 55.3012,9.4415 C54.7562,9.5275 54.3832,10.0395 54.4682,10.5835 C54.5452,11.0785 54.9712,11.4295 55.4552,11.4295 C55.5062,11.4295 55.5592,11.4255 55.6112,11.4175 C57.2372,11.1635 59.4422,10.3045 61.2532,9.5045 C63.3402,8.5825 65.6052,10.4615 65.0722,12.6805 C64.8722,13.5155 64.4942,14.2995 63.9382,15.0285 C61.5252,18.1925 56.3762,19.5475 52.5312,19.2555 C45.6622,18.7295 39.4462,16.2585 34.5572,12.1105 C34.4132,11.9885 34.1712,11.7835 34.1182,11.6435 C34.0612,11.4925 34.2372,11.1565 34.5242,10.9795 L34.5242,10.9795 Z M2.0002,43.8115 L2.0002,31.5615 C2.0002,28.8005 4.2382,26.5615 7.0002,26.5615 C8.6572,26.5615 10.0002,27.9045 10.0002,29.5615 L10.0002,45.8115 C10.0002,47.4685 8.6572,48.8115 7.0002,48.8115 C4.2382,48.8115 2.0002,46.5725 2.0002,43.8115 L2.0002,43.8115 Z M12.0002,51.6305 L12.0002,25.4305 C12.0002,18.2505 17.8202,12.4305 25.0002,12.4305 L30.0542,12.4305 C31.2302,12.4305 32.3582,12.8675 33.2542,13.6285 L33.2632,13.6355 C38.4762,18.0585 45.0862,20.6915 52.3782,21.2505 C52.7652,21.2795 53.1652,21.2945 53.5762,21.2945 C57.6792,21.2945 62.8222,19.7915 65.5282,16.2415 C65.5372,16.2295 65.5462,16.2185 65.5552,16.2065 C67.2952,13.9005 69.9162,12.4305 72.8052,12.4305 L73.0002,12.4305 C80.1802,12.4305 86.0002,18.2505 86.0002,25.4305 L86.0002,51.6305 C86.0002,58.8105 80.1802,64.6305 73.0002,64.6305 L25.0002,64.6305 C17.8202,64.6305 12.0002,58.8105 12.0002,51.6305 L12.0002,51.6305 Z M96.0002,43.8115 C96.0002,46.5725 93.7612,48.8115 91.0002,48.8115 C89.3432,48.8115 88.0002,47.4685 88.0002,45.8115 L88.0002,29.5615 C88.0002,27.9045 89.3432,26.5615 91.0002,26.5615 C93.7612,26.5615 96.0002,28.8005 96.0002,31.5615 L96.0002,43.8115 Z M91.0002,24.5615 L88.7052,24.5615 C88.2802,24.5615 87.9402,24.2355 87.8942,23.8145 C87.0852,16.3025 80.7232,10.4305 73.0002,10.4305 L70.2592,10.4305 C68.5932,10.4305 67.1662,9.3395 66.6072,7.7705 C66.6042,7.7615 66.6012,7.7525 66.5982,7.7435 C66.4672,7.3795 66.3102,7.0295 66.1372,6.6875 C67.0582,5.9085 67.9082,5.0525 68.6692,4.1175 C69.0182,3.6895 68.9532,3.0585 68.5242,2.7105 C68.0972,2.3655 67.4672,2.4295 67.1182,2.8555 C66.4902,3.6275 65.7872,4.3325 65.0362,4.9865 C64.0182,3.7295 62.6772,2.7065 61.0802,2.0075 C58.0972,0.7035 54.5782,0.6635 51.6672,1.9005 C50.2152,2.5165 48.8792,3.3355 47.5882,4.1275 C46.9232,4.5355 46.2582,4.9425 45.5792,5.3215 C43.3742,6.5515 41.0062,7.4765 38.5422,8.0705 C37.6932,8.2745 36.8312,8.4395 35.9792,8.5615 L35.8312,8.5825 C35.0852,8.6875 34.2392,8.8065 33.4762,9.2765 C33.0482,9.5395 32.6672,9.9505 32.4142,10.4305 L25.0002,10.4305 C17.2762,10.4305 10.9152,16.3025 10.1062,23.8145 C10.0602,24.2355 9.7192,24.5615 9.2952,24.5615 L7.0002,24.5615 C3.1342,24.5615 0.0002,27.6955 0.0002,31.5615 L0.0002,43.8115 C0.0002,47.6775 3.1342,50.8115 7.0002,50.8115 L9.1812,50.8115 C9.6332,50.8115 10.0002,51.1785 10.0002,51.6305 C10.0002,59.9155 16.7152,66.6305 25.0002,66.6305 L73.0002,66.6305 C81.2842,66.6305 88.0002,59.9155 88.0002,51.6305 C88.0002,51.1785 88.3672,50.8115 88.8192,50.8115 L91.0002,50.8115 C94.8662,50.8115 98.0002,47.6775 98.0002,43.8115 L98.0002,31.5615 C98.0002,27.6955 94.8662,24.5615 91.0002,24.5615 L91.0002,24.5615 Z"/>
      <path fill="#F6F6F7" d="M40.2243 12.4912C45.1953 16.7092 51.5093 19.2202 58.4843 19.7542 58.8303 19.7802 59.1873 19.7942 59.5523 19.7942 63.3733 19.7942 68.0283 18.3452 70.3263 15.3322 70.9213 14.5522 71.3333 13.6982 71.5503 12.7972 71.8403 11.5872 71.4223 10.3362 70.4603 9.5332 69.4933 8.7272 68.1823 8.5412 67.0423 9.0472 64.7223 10.0732 62.8143 10.7212 61.4463 10.9292 61.1983 10.9292 60.9913 10.7522 60.9533 10.5072 60.9103 10.2352 61.0973 9.9782 61.3693 9.9352 63.1523 9.6562 64.8753 9.1552 66.4903 8.4462 67.5133 7.9972 68.1483 7.0252 68.1483 5.9112 68.1493 4.8072 67.5203 3.8452 66.4693 3.3822 63.9043 2.2602 60.7383 2.2202 58.2443 3.2802 56.8953 3.8532 55.6653 4.6072 54.3633 5.4062 53.6813 5.8242 52.9983 6.2432 52.3003 6.6322 49.9753 7.9282 47.4803 8.9022 44.8833 9.5282 43.9883 9.7442 43.0793 9.9182 42.1823 10.0462L42.0293 10.0672C41.3713 10.1602 40.7493 10.2482 40.2533 10.5542L40.2523 10.5542C39.8273 10.8152 39.4723 11.3742 39.6413 11.8212 39.7333 12.0622 39.9703 12.2752 40.2243 12.4912M12.991 26.0615C9.958 26.0615 7.491 28.5285 7.491 31.5615L7.491 43.8115C7.491 46.8435 9.958 49.3115 12.991 49.3115 14.921 49.3115 16.491 47.7415 16.491 45.8115L16.491 29.5615C16.491 27.6315 14.921 26.0615 12.991 26.0615M96.991 26.0615C95.061 26.0615 93.491 27.6315 93.491 29.5615L93.491 45.8115C93.491 47.7415 95.061 49.3115 96.991 49.3115 100.024 49.3115 102.491 46.8435 102.491 43.8115L102.491 31.5615C102.491 28.5285 100.024 26.0615 96.991 26.0615"/>
      <path fill="#F6F6F7" d="M78.991,11.9297 L78.796,11.9297 C75.843,11.9297 73.054,13.3787 71.122,15.9377 C68.389,19.5227 63.189,20.7937 59.567,20.7937 C59.169,20.7937 58.782,20.7807 58.408,20.7507 C51.221,20.2007 44.709,17.6087 39.569,13.2477 C38.57,12.3977 37.318,11.9297 36.046,11.9297 L30.991,11.9297 C23.547,11.9297 17.491,17.9867 17.491,25.4297 L17.491,51.6307 C17.491,59.0747 23.547,65.1307 30.991,65.1307 L78.991,65.1307 C86.435,65.1307 92.491,59.0747 92.491,51.6307 L92.491,25.4297 C92.491,17.9867 86.435,11.9297 78.991,11.9297"/>
      <path fill="#B9BBBE" d="M40.5149,10.9795 C40.9229,10.7285 41.4949,10.6475 42.1009,10.5625 L42.2519,10.5415 C43.1659,10.4105 44.0909,10.2335 44.9999,10.0145 L45.0009,10.0145 C47.6419,9.3775 50.1799,8.3865 52.5439,7.0685 C53.2479,6.6765 53.9359,6.2545 54.6239,5.8325 C55.9109,5.0435 57.1249,4.2995 58.4389,3.7415 C59.6079,3.2445 60.8959,2.9975 62.1969,2.9975 C63.5839,2.9975 64.9859,3.2785 66.2689,3.8405 L66.3069,3.8575 C68.1079,4.6495 68.0899,7.1975 66.2889,7.9885 C64.7269,8.6745 63.0489,9.1665 61.2919,9.4415 C60.7469,9.5275 60.3739,10.0395 60.4589,10.5835 C60.5359,11.0785 60.9619,11.4295 61.4459,11.4295 C61.4969,11.4295 61.5499,11.4255 61.6019,11.4175 C63.2279,11.1635 65.4329,10.3045 67.2439,9.5045 C69.3309,8.5825 71.5959,10.4615 71.0629,12.6805 C70.8629,13.5155 70.4849,14.2995 69.9289,15.0285 C67.5159,18.1925 62.3669,19.5475 58.5219,19.2555 C51.6529,18.7295 45.4369,16.2585 40.5479,12.1105 C40.4039,11.9885 40.1619,11.7835 40.1089,11.6435 C40.0519,11.4925 40.2279,11.1565 40.5149,10.9795 L40.5149,10.9795 Z M7.9909,43.8115 L7.9909,31.5615 C7.9909,28.8005 10.2289,26.5615 12.9909,26.5615 C14.6479,26.5615 15.9909,27.9045 15.9909,29.5615 L15.9909,45.8115 C15.9909,47.4685 14.6479,48.8115 12.9909,48.8115 C10.2289,48.8115 7.9909,46.5725 7.9909,43.8115 L7.9909,43.8115 Z M17.9909,51.6305 L17.9909,25.4305 C17.9909,18.2505 23.8109,12.4305 30.9909,12.4305 L36.0449,12.4305 C37.2219,12.4305 38.3489,12.8675 39.2449,13.6285 C39.2479,13.6305 39.2509,13.6335 39.2539,13.6355 C44.4669,18.0585 51.0769,20.6915 58.3689,21.2505 C58.7559,21.2795 59.1559,21.2945 59.5669,21.2945 C63.6699,21.2945 68.8129,19.7915 71.5189,16.2415 C71.5279,16.2295 71.5369,16.2185 71.5459,16.2065 C73.2859,13.9005 75.9079,12.4305 78.7959,12.4305 L78.9909,12.4305 C86.1709,12.4305 91.9909,18.2505 91.9909,25.4305 L91.9909,51.6305 C91.9909,58.8105 86.1709,64.6305 78.9909,64.6305 L30.9909,64.6305 C23.8109,64.6305 17.9909,58.8105 17.9909,51.6305 L17.9909,51.6305 Z M101.9909,43.8115 C101.9909,46.5725 99.7519,48.8115 96.9909,48.8115 C95.3339,48.8115 93.9909,47.4685 93.9909,45.8115 L93.9909,29.5615 C93.9909,27.9045 95.3339,26.5615 96.9909,26.5615 C99.7519,26.5615 101.9909,28.8005 101.9909,31.5615 L101.9909,43.8115 Z M96.9909,24.5615 L94.6959,24.5615 C94.2719,24.5615 93.9309,24.2355 93.8849,23.8145 C93.0759,16.3025 86.7139,10.4305 78.9909,10.4305 L76.2499,10.4305 C74.5839,10.4305 73.1569,9.3395 72.5979,7.7705 C72.5949,7.7615 72.5919,7.7525 72.5889,7.7435 C72.4579,7.3795 72.3009,7.0295 72.1279,6.6875 C73.0489,5.9085 73.8989,5.0525 74.6599,4.1175 C75.0089,3.6895 74.9439,3.0585 74.5149,2.7105 C74.0879,2.3655 73.4579,2.4295 73.1089,2.8555 C72.4809,3.6275 71.7779,4.3325 71.0269,4.9865 C70.0089,3.7295 68.6679,2.7065 67.0709,2.0075 C64.0879,0.7035 60.5689,0.6635 57.6579,1.9005 C56.2059,2.5165 54.8699,3.3355 53.5789,4.1275 C52.9139,4.5355 52.2489,4.9425 51.5699,5.3215 C49.3649,6.5515 46.9969,7.4765 44.5329,8.0705 C43.6839,8.2745 42.8219,8.4395 41.9699,8.5615 L41.8219,8.5825 C41.0759,8.6875 40.2299,8.8065 39.4669,9.2765 C39.0389,9.5395 38.6579,9.9505 38.4049,10.4305 L30.9909,10.4305 C23.2669,10.4305 16.9059,16.3025 16.0969,23.8145 C16.0519,24.2355 15.7099,24.5615 15.2859,24.5615 L12.9909,24.5615 C9.1249,24.5615 5.9909,27.6955 5.9909,31.5615 L5.9909,43.8115 C5.9909,47.6775 9.1249,50.8115 12.9909,50.8115 L15.1719,50.8115 C15.6239,50.8115 15.9909,51.1785 15.9909,51.6305 C15.9909,59.9155 22.7069,66.6305 30.9909,66.6305 L78.9909,66.6305 C87.2749,66.6305 93.9909,59.9155 93.9909,51.6305 C93.9909,51.1785 94.3579,50.8115 94.8099,50.8115 L96.9909,50.8115 C100.8569,50.8115 103.9909,47.6775 103.9909,43.8115 L103.9909,31.5615 C103.9909,27.6955 100.8569,24.5615 96.9909,24.5615 L96.9909,24.5615 Z"/>
      <path fill="#8BA4E8" d="M106.6042 24.5923C106.4022 24.5713 106.1982 24.5613 105.9912 24.5613L102.9912 22.5613 102.9912 50.8113 105.9912 48.8113C106.1982 48.8113 106.4022 48.8003 106.6042 48.7803 108.2182 48.6163 109.6422 47.8133 110.6212 46.6283 111.4772 45.5913 111.9912 44.2613 111.9912 42.8113L111.9912 30.5613C111.9912 29.1113 111.4772 27.7813 110.6212 26.7443 109.6422 25.5593 108.2182 24.7563 106.6042 24.5923M21.991 24.5615C18.677 24.5615 15.991 27.2475 15.991 30.5615L15.991 42.8115C15.991 46.1245 18.677 48.8115 21.991 48.8115L24.991 50.8115 24.991 22.5615 21.991 24.5615z"/>
      <path fill="#AABFF2" d="M38.491,34.3115 C38.491,35.7125 37.376,36.8275 36.007,36.8275 L35.975,36.8275 C34.605,36.8275 33.491,35.7125 33.491,34.3425 C33.491,32.9415 34.605,31.8275 35.975,31.8275 C37.376,31.8275 38.491,32.9415 38.491,34.3115 M83.159,31.9835 L83.159,36.1625 C83.159,44.4735 76.398,51.2335 68.088,51.2335 L60.23,51.2335 C51.92,51.2335 45.159,44.4735 45.159,36.1625 L45.159,31.9835 C45.159,29.2275 47.402,26.9835 50.159,26.9835 L78.159,26.9835 C80.916,26.9835 83.159,29.2275 83.159,31.9835 M65.991,57.5245 C65.991,57.8165 65.763,58.0445 65.484,58.0445 L62.497,58.0445 C62.218,58.0445 61.991,57.8165 61.991,57.5375 C61.991,57.2445 62.218,57.0175 62.497,57.0175 L65.484,57.0175 C65.763,57.0175 65.991,57.2445 65.991,57.5245 M89.491,34.3585 L89.491,34.2955 C89.491,32.9175 90.613,31.7955 91.991,31.7955 C93.369,31.7955 94.491,32.9175 94.491,34.2955 L94.491,34.3585 C94.491,35.7365 93.369,36.8585 91.991,36.8585 C90.613,36.8585 89.491,35.7365 89.491,34.3585 M87.991,9.4295 L82.216,9.4295 L81.241,9.4295 L81.217,10.4055 C81.179,11.9635 80.676,13.3865 79.724,14.6355 C77.102,18.0745 72.075,19.2945 68.568,19.2945 C68.185,19.2945 67.807,19.2805 67.446,19.2525 C60.365,18.7105 53.952,16.1585 48.901,11.8735 C48.654,11.6645 48.318,11.3785 48.174,10.9985 C48.113,10.8375 48.089,10.6745 48.101,10.4995 L48.176,9.4295 L47.104,9.4295 L39.991,9.4295 C31.72,9.4295 24.991,16.1595 24.991,24.4295 L24.991,24.5615 L24.991,48.8115 L24.991,50.6305 C24.991,58.9015 31.72,65.6305 39.991,65.6305 L87.991,65.6305 C90.104,65.6305 92.148,65.1995 94.065,64.3475 C94.433,64.1845 94.8,64.0025 95.154,63.8095 C95.858,63.4255 96.537,62.9815 97.172,62.4885 C98.014,61.8335 98.79,61.0875 99.477,60.2695 C99.554,60.1785 99.627,60.0835 99.7,59.9895 L99.784,59.8815 C100.175,59.3835 100.546,58.8405 100.886,58.2675 C101.387,57.4225 101.807,56.5235 102.133,55.5965 C102.702,53.9745 102.991,52.3045 102.991,50.6305 L102.991,48.8115 L102.991,24.5615 L102.991,24.4295 C102.991,16.1595 96.262,9.4295 87.991,9.4295"/>
      <path fill="#CBDAF7" d="M73.1589,44.1695 C73.1589,45.0015 72.4839,45.6755 71.6519,45.6755 L68.6659,45.6755 C67.8329,45.6755 67.1589,45.0015 67.1589,44.1695 L67.1589,44.1555 C67.1589,43.3235 67.8329,42.6495 68.6659,42.6495 L71.6519,42.6495 C72.4839,42.6495 73.1589,43.3235 73.1589,44.1555 L73.1589,44.1695 Z M60.6589,44.1695 C60.6589,45.0015 59.9839,45.6755 59.1519,45.6755 L56.1659,45.6755 C55.3329,45.6755 54.6589,45.0015 54.6589,44.1695 L54.6589,44.1555 C54.6589,43.3235 55.3329,42.6495 56.1659,42.6495 L59.1519,42.6495 C59.9839,42.6495 60.6589,43.3235 60.6589,44.1555 L60.6589,44.1695 Z M78.1589,25.9835 L50.1589,25.9835 C46.8449,25.9835 44.1589,28.6705 44.1589,31.9835 L44.1589,36.1625 C44.1589,45.0385 51.3539,52.2335 60.2299,52.2335 L68.0879,52.2335 C76.9639,52.2335 84.1589,45.0385 84.1589,36.1625 L84.1589,31.9835 C84.1589,28.6705 81.4719,25.9835 78.1589,25.9835 L78.1589,25.9835 Z"/>
      <path fill="#AABFF2" d="M71.6521 42.6494L68.6661 42.6494C67.8331 42.6494 67.1591 43.3234 67.1591 44.1554L67.1591 44.1694C67.1591 45.0014 67.8331 45.6754 68.6661 45.6754L71.6521 45.6754C72.4841 45.6754 73.1591 45.0014 73.1591 44.1694L73.1591 44.1554C73.1591 43.3234 72.4841 42.6494 71.6521 42.6494M59.1521 42.6494L56.1661 42.6494C55.3331 42.6494 54.6591 43.3234 54.6591 44.1554L54.6591 44.1694C54.6591 45.0014 55.3331 45.6754 56.1661 45.6754L59.1521 45.6754C59.9841 45.6754 60.6591 45.0014 60.6591 44.1694L60.6591 44.1554C60.6591 43.3234 59.9841 42.6494 59.1521 42.6494"/>
      <path fill="#43B581" d="M49.5476,11.1104 C54.4376,15.2584 60.6526,17.7294 67.5216,18.2564 C71.3656,18.5554 76.5156,17.1934 78.9286,14.0294 C80.3496,12.1664 80.6106,9.9414 79.7056,7.4184 C79.6466,7.2524 79.5716,7.0934 79.5016,6.9324 C76.9146,8.7034 73.8806,9.9044 70.6026,10.4184 C70.5496,10.4254 70.4966,10.4294 70.4456,10.4294 C69.9616,10.4294 69.5356,10.0784 69.4586,9.5844 C69.3736,9.0394 69.7466,8.5274 70.2916,8.4414 C73.3086,7.9684 76.0926,6.8574 78.4536,5.2224 C77.6376,4.2224 76.5576,3.4034 75.2686,2.8394 C72.7826,1.7524 69.8556,1.7144 67.4396,2.7414 C66.1266,3.2984 64.9126,4.0424 63.6286,4.8304 C62.9386,5.2534 62.2486,5.6744 61.5436,6.0684 C59.1806,7.3864 56.6426,8.3784 54.0006,9.0144 C53.0976,9.2324 52.1736,9.4094 51.2536,9.5414 L51.1006,9.5624 C50.4946,9.6484 49.9226,9.7284 49.5146,9.9804 C49.2276,10.1564 49.0506,10.4924 49.1086,10.6424 C49.1616,10.7834 49.4026,10.9884 49.5476,11.1104"/>
      <path fill="#8BA4E8" d="M65.4841,56.0176 L62.4971,56.0176 C61.6651,56.0176 60.9911,56.6916 60.9911,57.5246 L60.9911,57.5376 C60.9911,58.3696 61.6651,59.0446 62.4971,59.0446 L65.4841,59.0446 C66.3161,59.0446 66.9911,58.3696 66.9911,57.5376 L66.9911,57.5246 C66.9911,56.6916 66.3161,56.0176 65.4841,56.0176"/>
      <path fill="#000000" d="M90.2434 30.6699C88.8294 31.2909 87.9914 32.7719 87.9914 34.3159L87.9914 34.3379C87.9914 35.8819 88.8294 37.3639 90.2434 37.9839 93.1494 39.2599 95.9914 37.1269 95.9914 34.3629L95.9914 34.2919C95.9914 31.5269 93.1494 29.3949 90.2434 30.6699M35.991 30.3272L35.991 30.3272C33.791 30.3272 31.991 32.1272 31.991 34.3272 31.991 36.5272 33.791 38.3272 35.991 38.3272 38.191 38.3272 39.991 36.5272 39.991 34.3272 39.991 32.1272 38.191 30.3272 35.991 30.3272"/>
      <path fill="#000000" d="M111.991,42.8115 C111.991,44.2615 111.477,45.5905 110.621,46.6275 C109.642,47.8125 108.218,48.6165 106.604,48.7805 C106.403,48.8005 106.198,48.8115 105.991,48.8115 L103.81,48.8115 C102.805,48.8115 101.991,49.6255 101.991,50.6305 C101.991,52.2575 101.699,53.8125 101.189,55.2645 C100.882,56.1395 100.492,56.9715 100.026,57.7565 C99.714,58.2825 99.373,58.7865 98.997,59.2645 C98.902,59.3855 98.811,59.5085 98.712,59.6265 C98.07,60.3915 97.347,61.0855 96.558,61.6985 C95.967,62.1575 95.337,62.5705 94.675,62.9315 C94.344,63.1125 94.005,63.2795 93.658,63.4335 C91.927,64.2035 90.009,64.6305 87.991,64.6305 L39.991,64.6305 C32.259,64.6305 25.991,58.3625 25.991,50.6305 C25.991,49.6255 25.176,48.8115 24.171,48.8115 L21.991,48.8115 C18.677,48.8115 15.991,46.1245 15.991,42.8115 L15.991,30.5615 C15.991,27.2475 18.677,24.5615 21.991,24.5615 L24.336,24.4845 C25.246,24.4545 25.977,23.7525 26.079,22.8475 C26.866,15.8605 32.794,10.4295 39.991,10.4295 L47.104,10.4295 C47.082,10.7335 47.121,11.0445 47.239,11.3535 C47.475,11.9755 47.963,12.3885 48.254,12.6355 C53.467,17.0585 60.077,19.6915 67.369,20.2495 C67.756,20.2795 68.157,20.2945 68.568,20.2945 C72.67,20.2945 77.813,18.7905 80.519,15.2425 C80.99,14.6245 81.361,13.9725 81.636,13.2895 C82.312,11.6055 83.853,10.4295 85.668,10.4295 L87.991,10.4295 C95.188,10.4295 101.116,15.8605 101.903,22.8475 C102.004,23.7525 102.736,24.4545 103.646,24.4845 L105.991,24.5615 C106.198,24.5615 106.403,24.5715 106.604,24.5925 C108.218,24.7565 109.642,25.5595 110.621,26.7445 C111.477,27.7815 111.991,29.1115 111.991,30.5615 L111.991,42.8115 Z M49.514,9.9805 C49.923,9.7285 50.495,9.6485 51.101,9.5625 L51.253,9.5405 C52.174,9.4095 53.098,9.2325 54.001,9.0145 C56.643,8.3775 59.18,7.3865 61.543,6.0685 C62.249,5.6745 62.939,5.2525 63.628,4.8305 C64.913,4.0415 66.127,3.2985 67.439,2.7415 C69.855,1.7145 72.783,1.7515 75.269,2.8395 L75.307,2.8565 C77.108,3.6495 77.09,6.1965 75.289,6.9885 C73.727,7.6745 72.049,8.1655 70.292,8.4415 C69.747,8.5275 69.374,9.0395 69.459,9.5835 C69.536,10.0785 69.962,10.4295 70.446,10.4295 C70.497,10.4295 70.55,10.4255 70.602,10.4175 C72.158,10.1745 73.66,9.7755 75.085,9.2345 C77.796,8.2045 80.541,11.1225 79.158,13.6715 C79.089,13.7995 79.012,13.9185 78.928,14.0295 C76.516,17.1935 71.366,18.5555 67.522,18.2555 C60.653,17.7295 54.438,15.2585 49.548,11.1105 C49.403,10.9885 49.162,10.7835 49.108,10.6425 C49.051,10.4925 49.227,10.1565 49.514,9.9805 L49.514,9.9805 Z M105.991,22.5615 L105.691,22.5615 C104.674,22.5615 103.815,21.8445 103.588,20.8525 C101.958,13.7465 95.584,8.4295 87.991,8.4295 L83.89,8.4295 C82.844,8.4295 81.946,7.7465 81.595,6.7605 C81.593,6.7545 81.591,6.7485 81.589,6.7435 C81.458,6.3795 81.301,6.0295 81.128,5.6875 C82.049,4.9085 82.899,4.0525 83.66,3.1175 C84.009,2.6895 83.944,2.0585 83.515,1.7105 C83.088,1.3655 82.458,1.4295 82.109,1.8555 C81.481,2.6275 80.778,3.3325 80.027,3.9865 C79.009,2.7295 77.668,1.7065 76.071,1.0075 C73.088,-0.2955 69.57,-0.3375 66.657,0.9005 C65.208,1.5155 63.873,2.3335 62.583,3.1245 C61.917,3.5335 61.251,3.9415 60.569,4.3225 C58.365,5.5515 55.997,6.4765 53.532,7.0705 C52.69,7.2735 51.828,7.4385 50.97,7.5615 L50.822,7.5825 C50.076,7.6875 49.231,7.8065 48.467,8.2765 C48.394,8.3215 48.325,8.3775 48.255,8.4295 L39.991,8.4295 C32.398,8.4295 26.024,13.7465 24.394,20.8525 C24.167,21.8445 23.308,22.5615 22.291,22.5615 L21.991,22.5615 C17.573,22.5615 13.991,26.1435 13.991,30.5615 L13.991,42.8115 C13.991,47.2295 17.573,50.8115 21.991,50.8115 C23.089,50.8115 23.985,51.6405 24.128,52.7285 C25.158,60.5635 31.88,66.6305 39.991,66.6305 L87.991,66.6305 C96.102,66.6305 102.823,60.5635 103.854,52.7285 C103.997,51.6405 104.893,50.8115 105.991,50.8115 C110.409,50.8115 113.991,47.2295 113.991,42.8115 L113.991,30.5615 C113.991,26.1435 110.409,22.5615 105.991,22.5615 L105.991,22.5615 Z"/>
      <path fill="#B9BBBE" d="M76.5959 75.1358L76.5959 75.1358C75.5269 75.1358 74.6589 74.2688 74.6589 73.1988L74.6589 73.1988C74.6589 72.9218 74.4349 72.6978 74.1589 72.6978 73.8829 72.6978 73.6589 72.9218 73.6589 73.1988L73.6589 73.1988C73.6589 74.2688 72.7919 75.1358 71.7219 75.1358L71.7209 75.1358C71.4449 75.1358 71.2209 75.3598 71.2209 75.6358 71.2209 75.9118 71.4449 76.1358 71.7209 76.1358L71.7219 76.1358C72.7919 76.1358 73.6589 77.0028 73.6589 78.0728 73.6589 78.3488 73.8829 78.5728 74.1589 78.5728 74.4349 78.5728 74.6589 78.3488 74.6589 78.0728 74.6589 77.0028 75.5269 76.1358 76.5959 76.1358 76.8719 76.1358 77.0959 75.9118 77.0959 75.6358 77.0959 75.3598 76.8719 75.1358 76.5959 75.1358M118.7493 10.4502C118.8953 10.4502 119.0413 10.3862 119.1393 10.2632L120.0703 9.1042C120.2433 8.8892 120.2093 8.5752 119.9943 8.4022 119.7783 8.2292 119.4643 8.2632 119.2913 8.4782L118.3603 9.6372C118.1873 9.8522 118.2213 10.1672 118.4373 10.3402 118.5293 10.4142 118.6393 10.4502 118.7493 10.4502M114.6052 13.3198L113.6742 14.4788C113.5012 14.6938 113.5352 15.0078 113.7512 15.1808 113.8432 15.2558 113.9532 15.2918 114.0632 15.2918 114.2092 15.2918 114.3552 15.2278 114.4532 15.1048L115.3842 13.9458C115.5572 13.7308 115.5232 13.4158 115.3082 13.2428 115.0922 13.0708 114.7782 13.1048 114.6052 13.3198M118.531 13.1646C118.326 13.3506 118.311 13.6666 118.496 13.8716L119.502 14.9806C119.6 15.0896 119.736 15.1446 119.872 15.1446 119.992 15.1446 120.113 15.1016 120.208 15.0156 120.413 14.8296 120.428 14.5136 120.243 14.3086L119.238 13.1996C119.052 12.9946 118.735 12.9806 118.531 13.1646M114.5071 10.3838C114.6061 10.4928 114.7411 10.5488 114.8781 10.5488 114.9971 10.5488 115.1171 10.5058 115.2131 10.4188 115.4181 10.2338 115.4341 9.9178 115.2481 9.7128L114.2431 8.6028C114.0581 8.3968 113.7411 8.3838 113.5371 8.5678 113.3321 8.7538 113.3161 9.0698 113.5021 9.2738L114.5071 10.3838z"/>
      <path fill="#8EA1E1" d="M125.0285,46.6309 L89.0285,46.6309 C87.0985,46.6309 85.5285,48.2009 85.5285,50.1309 L85.5285,68.1309 C85.5285,70.0609 87.0985,71.6309 89.0285,71.6309 L125.0285,71.6309 C126.9585,71.6309 128.5285,70.0609 128.5285,68.1309 L128.5285,50.1309 C128.5285,48.2009 126.9585,46.6309 125.0285,46.6309"/>
      <path fill="#040405" d="M125.0285,44.6309 L89.0285,44.6309 C85.9955,44.6309 83.5285,47.0979 83.5285,50.1309 L83.5285,68.1309 C83.5285,71.1639 85.9955,73.6309 89.0285,73.6309 L125.0285,73.6309 C128.0615,73.6309 130.5285,71.1639 130.5285,68.1309 L130.5285,50.1309 C130.5285,47.0979 128.0615,44.6309 125.0285,44.6309 M125.0285,46.6309 C126.9585,46.6309 128.5285,48.2009 128.5285,50.1309 L128.5285,68.1309 C128.5285,70.0609 126.9585,71.6309 125.0285,71.6309 L89.0285,71.6309 C87.0985,71.6309 85.5285,70.0609 85.5285,68.1309 L85.5285,50.1309 C85.5285,48.2009 87.0985,46.6309 89.0285,46.6309 L125.0285,46.6309"/>
      <path fill="#040405" d="M103.0881 61.4175L103.0881 59.4555C103.0881 58.7785 102.5401 58.2295 101.8631 58.2295L98.8211 58.2295C98.1451 58.2295 97.5961 58.7785 97.5961 59.4555L97.5961 59.5795C97.5961 60.2565 98.1451 60.8055 98.8211 60.8055L100.4951 60.8055 100.4951 61.4175C100.4951 62.5515 99.2891 63.1095 98.1001 63.1095 96.9121 63.1095 95.7421 62.5515 95.7421 61.4175L95.7421 56.7715C95.7421 55.6375 96.8581 55.0065 98.0101 55.0065 98.7361 55.0065 99.4711 55.2385 99.9751 55.7445 100.3371 56.1065 100.9091 56.1545 101.3611 55.9155 102.0551 55.5475 102.2571 54.6055 101.7191 54.0335 100.7241 52.9765 99.3881 52.5755 98.0831 52.5755 95.5981 52.5755 93.1121 53.9805 93.1121 56.7715L93.1121 61.4175C93.1121 64.2805 95.6151 65.7035 98.1191 65.6855 100.6031 65.6675 103.0881 64.2445 103.0881 61.4175M107.5119 52.7559L107.3159 52.7559C106.6389 52.7559 106.0909 53.3049 106.0909 53.9819L106.0909 64.2799C106.0909 64.9569 106.6389 65.5049 107.3159 65.5049L107.5119 65.5049C108.1889 65.5049 108.7379 64.9569 108.7379 64.2799L108.7379 53.9819C108.7379 53.3049 108.1889 52.7559 107.5119 52.7559M114.9831 56.9146L114.9831 56.5566C114.9831 55.8796 115.5321 55.3316 116.2091 55.3316L119.7191 55.3316C120.3961 55.3316 120.9441 54.7826 120.9441 54.1056L120.9441 53.9816C120.9441 53.3046 120.3961 52.7556 119.7191 52.7556L113.5431 52.7556C112.8661 52.7556 112.3181 53.3046 112.3181 53.9816L112.3181 64.2796C112.3181 64.9566 112.8661 65.5046 113.5431 65.5046L113.7571 65.5046C114.4341 65.5046 114.9831 64.9566 114.9831 64.2796L114.9831 61.9766C114.9831 61.2996 115.5321 60.7516 116.2091 60.7516L118.9811 60.7516C119.6571 60.7516 120.2061 60.2026 120.2061 59.5256L120.2061 59.3656C120.2061 58.6886 119.6571 58.1396 118.9811 58.1396L116.2091 58.1396C115.5321 58.1396 114.9831 57.5916 114.9831 56.9146"/>
    </g>
    <rect width="140" height="96"/>
  </g>
</svg>
