<svg xmlns="http://www.w3.org/2000/svg" xmlns:xlink="http://www.w3.org/1999/xlink" width="140" height="96" viewBox="0 0 140 96">
  <defs>
    <polygon id="a" points="6.455 .704 6.455 6.579 .581 6.579 .581 .704 6.455 .704"/>
    <polygon id="c" points=".878 .657 2.809 .657 2.809 2.815 .878 2.815 .878 .657"/>
    <polygon id="e" points="0 2.913 0 .803 2.006 .803 2.006 2.913"/>
  </defs>
  <g fill="none" fill-rule="evenodd">
    <g transform="translate(17 1)">
      <path fill="#FFFFFF" d="M11.985 65.6544L12.351 47.2344C11.702 46.1044 11.325 44.7984 11.325 43.4044 11.325 41.9014 11.763 40.5024 12.508 39.3144L12.705 29.4204C12.75 27.1564 13.024 24.9454 13.504 22.8084 9.065 29.2424 6.458 37.0314 6.458 45.4214 6.458 52.8024 8.479 59.7174 11.985 65.6544M78.9338 22.3576C79.4788 24.6336 79.7968 26.9956 79.8458 29.4196L80.0418 39.3146C80.7878 40.5016 81.2258 41.9006 81.2258 43.4036 81.2258 44.7986 80.8488 46.1046 80.1998 47.2356L80.3408 54.3436 85.2838 54.3436C85.9418 51.4726 86.3008 48.4886 86.3008 45.4216 86.3008 36.8336 83.5658 28.8766 78.9338 22.3576"/>
      <path fill="#DCDDDE" d="M38.2956 84.5197L38.2956 76.4027C27.2256 73.0907 19.0206 63.0807 18.4176 51.0957 16.8746 50.9697 15.4616 50.3897 14.3066 49.4877L13.9266 68.6287C19.6746 76.6437 28.3046 82.4567 38.2956 84.5197M74.133 51.0954C74.078 52.1974 73.951 53.2794 73.771 54.3434L78.34 54.3434 78.243 49.4884C77.089 50.3894 75.676 50.9704 74.133 51.0954M14.5524 37.1364C15.6504 36.3464 16.9594 35.8364 18.3814 35.7144L18.3814 31.1884C18.3814 30.9384 18.4104 30.6954 18.4194 30.4464L17.8494 30.4464C17.2974 30.4464 16.8494 29.9984 16.8494 29.4464 16.8494 28.8944 17.2974 28.4464 17.8494 28.4464L55.9234 28.4464 60.6664 22.1224C61.0434 21.6194 61.8884 21.6194 62.2654 22.1224L67.0084 28.4464 75.5304 28.4464C76.0824 28.4464 76.5304 28.8944 76.5304 29.4464 76.5304 29.9984 76.0824 30.4464 75.5304 30.4464L74.1314 30.4464C74.1404 30.6954 74.1694 30.9384 74.1694 31.1884L74.1694 35.7144C75.5904 35.8364 76.9004 36.3464 77.9974 37.1364L77.8454 29.4604C77.7654 25.4514 76.9154 21.6234 75.4524 18.1054 68.1654 10.3544 57.8314 5.4994 46.3794 5.4994 34.7354 5.4994 24.2414 10.5124 16.9374 18.4924 15.5714 21.9034 14.7814 25.5984 14.7044 29.4604L14.5524 37.1364z"/>
      <path fill="#F6F6F7" d="M40.2956 76.9191L40.2956 84.8801C42.2796 85.1851 44.3116 85.3431 46.3796 85.3431 47.3446 85.3431 48.2976 85.2971 49.2456 85.2291L49.2456 77.4121C48.2696 77.5151 47.2786 77.5711 46.2756 77.5711 44.2226 77.5711 42.2236 77.3421 40.2956 76.9191M74.1691 37.7223L74.1691 49.0853C77.0121 48.7533 79.2261 46.3343 79.2261 43.4043 79.2261 40.4733 77.0121 38.0543 74.1691 37.7223M13.3249 43.4039C13.3249 46.3339 15.5389 48.7539 18.3819 49.0859L18.3819 37.7219C15.5389 38.0539 13.3249 40.4739 13.3249 43.4039M52.4557 59.1027C51.2657 60.3497 49.1107 61.0937 46.6897 61.0937 44.2697 61.0937 42.1147 60.3497 40.9247 59.1027 40.5427 58.7037 40.5577 58.0707 40.9567 57.6887 41.3547 57.3077 41.9887 57.3207 42.3707 57.7217 43.1667 58.5547 44.8617 59.0937 46.6897 59.0937 48.5177 59.0937 50.2137 58.5547 51.0097 57.7217 51.3907 57.3207 52.0237 57.3077 52.4227 57.6887 52.8227 58.0707 52.8367 58.7037 52.4557 59.1027L52.4557 59.1027zM23.2827 36.2637C25.3937 33.5367 29.1517 32.9477 31.7277 33.2727 32.1357 33.3357 32.5157 33.7487 32.4567 34.2117 32.3977 34.6717 31.9777 34.9987 31.5177 34.9397 29.3807 34.6707 26.2897 35.1247 24.6137 37.2937 24.4087 37.5547 24.0837 37.6647 23.7797 37.6027 23.6577 37.5767 23.5387 37.5237 23.4337 37.4427 23.0657 37.1597 22.9997 36.6317 23.2827 36.2637L23.2827 36.2637zM34.5097 41.7237C34.5097 43.5797 33.0037 45.0847 31.1477 45.0847 29.2907 45.0847 27.7857 43.5797 27.7857 41.7237 27.7857 39.8667 29.2907 38.3617 31.1477 38.3617 33.0037 38.3617 34.5097 39.8667 34.5097 41.7237L34.5097 41.7237zM42.5647 43.6407C42.5647 43.0877 43.0127 42.6407 43.5647 42.6407 44.1167 42.6407 44.5647 43.0877 44.5647 43.6407L44.5647 49.8917C44.5647 51.0627 45.5187 52.0167 46.6897 52.0167 47.8617 52.0167 48.8157 51.0627 48.8157 49.8917L48.8157 43.6407C48.8157 43.0877 49.2637 42.6407 49.8157 42.6407 50.3677 42.6407 50.8157 43.0877 50.8157 43.6407L50.8157 49.8917C50.8157 52.1657 48.9647 54.0167 46.6897 54.0167 44.4147 54.0167 42.5647 52.1657 42.5647 49.8917L42.5647 43.6407zM60.8217 33.2727C63.3977 32.9477 67.1557 33.5367 69.2677 36.2637 69.5507 36.6317 69.4837 37.1597 69.1167 37.4427 69.0107 37.5237 68.8927 37.5767 68.7707 37.6027 68.4667 37.6647 68.1407 37.5547 67.9367 37.2937 66.2597 35.1247 63.1687 34.6707 61.0327 34.9397 60.5727 34.9987 60.1517 34.6717 60.0927 34.2117 60.0347 33.7487 60.4147 33.3357 60.8217 33.2727L60.8217 33.2727zM58.0407 41.7237C58.0407 39.8667 59.5467 38.3617 61.4027 38.3617 63.2597 38.3617 64.7647 39.8667 64.7647 41.7237 64.7647 43.5797 63.2597 45.0847 61.4027 45.0847 59.5467 45.0847 58.0407 43.5797 58.0407 41.7237L58.0407 41.7237zM72.1687 49.6777L72.1687 31.1887C72.1687 30.9377 72.1417 30.6947 72.1317 30.4467L66.5087 30.4467C66.1937 30.4467 65.8967 30.2977 65.7087 30.0467L61.4657 24.3897 57.2237 30.0467C57.0347 30.2977 56.7387 30.4467 56.4237 30.4467L20.4187 30.4467C20.4097 30.6947 20.3817 30.9377 20.3817 31.1887L20.3817 49.6777C20.3817 63.9557 31.9977 75.5717 46.2747 75.5717 47.2797 75.5717 48.2697 75.5077 49.2457 75.3957L49.2457 68.8437C49.2457 66.1237 51.2317 63.8647 53.8287 63.4267 54.2167 61.1287 56.0307 59.3147 58.3287 58.9267 58.7677 56.3297 61.0257 54.3437 63.7457 54.3437L71.7397 54.3437C72.0167 52.8287 72.1687 51.2707 72.1687 49.6777L72.1687 49.6777z"/>
      <path fill="#B9BBBE" d="M64.7648 41.7233C64.7648 39.8663 63.2598 38.3613 61.4028 38.3613 59.5468 38.3613 58.0408 39.8663 58.0408 41.7233 58.0408 43.5793 59.5468 45.0843 61.4028 45.0843 63.2598 45.0843 64.7648 43.5793 64.7648 41.7233M27.7858 41.7233C27.7858 43.5793 29.2908 45.0843 31.1478 45.0843 33.0038 45.0843 34.5098 43.5793 34.5098 41.7233 34.5098 39.8663 33.0038 38.3613 31.1478 38.3613 29.2908 38.3613 27.7858 39.8663 27.7858 41.7233M46.6901 54.0167C48.9651 54.0167 50.8151 52.1657 50.8151 49.8917L50.8151 43.6407C50.8151 43.0877 50.3681 42.6407 49.8151 42.6407 49.2631 42.6407 48.8151 43.0877 48.8151 43.6407L48.8151 49.8917C48.8151 51.0627 47.8621 52.0167 46.6901 52.0167 45.5181 52.0167 44.5651 51.0627 44.5651 49.8917L44.5651 43.6407C44.5651 43.0877 44.1171 42.6407 43.5651 42.6407 43.0121 42.6407 42.5651 43.0877 42.5651 43.6407L42.5651 49.8917C42.5651 52.1657 44.4151 54.0167 46.6901 54.0167M51.0094 57.7218C50.2134 58.5548 48.5184 59.0938 46.6904 59.0938 44.8624 59.0938 43.1664 58.5548 42.3704 57.7218 41.9884 57.3208 41.3554 57.3068 40.9574 57.6888 40.5574 58.0708 40.5434 58.7028 40.9244 59.1028 42.1144 60.3488 44.2694 61.0938 46.6904 61.0938 49.1104 61.0938 51.2654 60.3488 52.4554 59.1028 52.8374 58.7028 52.8224 58.0708 52.4234 57.6888 52.0244 57.3068 51.3904 57.3208 51.0094 57.7218M61.0329 34.9401C63.1689 34.6711 66.2599 35.1251 67.9369 37.2941 68.1409 37.5551 68.4669 37.6641 68.7709 37.6021 68.8929 37.5771 69.0109 37.5241 69.1169 37.4431 69.4839 37.1591 69.5509 36.6311 69.2669 36.2641 67.1559 33.5371 63.3979 32.9481 60.8219 33.2731 60.4149 33.3361 60.0349 33.7491 60.0929 34.2111 60.1519 34.6721 60.5729 34.9981 61.0329 34.9401M23.4333 37.443C23.5393 37.524 23.6573 37.577 23.7793 37.602 24.0833 37.664 24.4093 37.555 24.6133 37.294 26.2903 35.125 29.3813 34.671 31.5173 34.94 31.9773 34.998 32.3983 34.672 32.4573 34.212 32.5153 33.749 32.1353 33.336 31.7273 33.273 29.1523 32.948 25.3943 33.537 23.2833 36.264 22.9993 36.631 23.0663 37.159 23.4333 37.443"/>
      <path fill="#B9BBBE" d="M16.9362,50.8278 L17.0382,50.8558 C17.8402,51.0748 18.4462,51.7558 18.5322,52.5828 C19.7092,63.9038 27.6872,73.2288 38.2952,76.4028 L38.2952,77.7898 C38.2952,81.3578 34.6722,83.7588 31.3682,82.4118 C26.3842,80.3798 21.9002,77.3668 18.1552,73.6158 C15.3842,70.8398 13.9592,66.9928 14.0372,63.0708 L14.2402,52.8438 C14.2682,51.4538 15.5952,50.4608 16.9362,50.8278 L16.9362,50.8278 Z M12.7052,29.4198 L12.5082,39.3148 C11.7632,40.5018 11.3252,41.9018 11.3252,43.4038 C11.3252,44.7988 11.7022,46.1038 12.3512,47.2348 L12.0622,61.7618 C12.0412,62.8188 10.5982,63.1298 10.1522,62.1718 C7.7842,57.0758 6.4572,51.4018 6.4572,45.4218 C6.4572,38.8248 8.0692,32.5988 10.9162,27.1128 C11.4132,26.1538 12.8632,26.5938 12.7852,27.6708 C12.7432,28.2498 12.7162,28.8328 12.7052,29.4198 L12.7052,29.4198 Z M13.3252,43.4038 C13.3252,41.8488 13.9482,40.4388 14.9572,39.4078 C16.2062,38.1318 18.3812,39.0368 18.3812,40.8218 L18.3812,45.9858 C18.3812,47.7708 16.2062,48.6768 14.9572,47.4008 C13.9482,46.3698 13.3252,44.9588 13.3252,43.4038 L13.3252,43.4038 Z M74.1692,45.9858 L74.1692,40.8218 C74.1692,39.0368 76.3452,38.1318 77.5932,39.4078 C78.6032,40.4388 79.2262,41.8488 79.2262,43.4038 C79.2262,44.9588 78.6032,46.3698 77.5932,47.4008 C76.3452,48.6768 74.1692,47.7708 74.1692,45.9858 L74.1692,45.9858 Z M46.3792,5.4998 C54.4762,5.4998 62.0142,7.9268 68.3112,12.0878 C74.0592,15.8858 77.6422,22.3028 77.8382,29.1878 C77.8412,29.2788 77.8432,29.3698 77.8452,29.4598 L77.9402,34.2618 C77.9652,35.4818 76.7922,36.3178 75.6202,35.9818 C75.5962,35.9748 75.5732,35.9678 75.5492,35.9618 C74.7512,35.7418 74.1692,35.0598 74.1692,34.2318 L74.1692,31.1888 C74.1692,30.9378 74.1402,30.6948 74.1312,30.4468 L75.5302,30.4468 C76.0822,30.4468 76.5302,29.9988 76.5302,29.4468 C76.5302,28.8938 76.0822,28.4468 75.5302,28.4468 L67.0082,28.4468 L62.2662,22.1228 C61.8662,21.5898 61.0662,21.5898 60.6662,22.1228 L55.9232,28.4468 L17.8502,28.4468 C17.2972,28.4468 16.8502,28.8938 16.8502,29.4468 C16.8502,29.9988 17.2972,30.4468 17.8502,30.4468 L18.4192,30.4468 C18.4102,30.6948 18.3812,30.9378 18.3812,31.1888 L18.3812,34.1398 C18.3812,34.9878 17.8172,35.7318 17.0002,35.9618 L16.9312,35.9818 C15.7512,36.3128 14.5862,35.4118 14.6112,34.1868 L14.7052,29.4598 L14.7072,29.3448 C14.8492,22.8208 17.9682,16.6628 23.2842,12.8788 C29.8072,8.2338 37.7792,5.4998 46.3792,5.4998 L46.3792,5.4998 Z M49.2462,85.2288 C48.2982,85.2968 47.3442,85.3438 46.3792,85.3438 C44.3112,85.3438 42.2802,85.1848 40.2952,84.8808 L40.2952,76.9188 C42.2232,77.3418 44.2232,77.5718 46.2752,77.5718 C47.2792,77.5718 48.2692,77.5148 49.2462,77.4118 L49.2462,75.3958 C48.2702,75.5078 47.2802,75.5718 46.2752,75.5718 C31.9972,75.5718 20.3812,63.9558 20.3812,49.6778 L20.3812,31.1888 L21.1232,30.4468 L56.4232,30.4468 C56.7382,30.4468 57.0342,30.2988 57.2232,30.0468 L59.8662,26.5228 C60.6652,25.4558 62.2662,25.4558 63.0662,26.5228 L65.7082,30.0468 C65.8972,30.2988 66.1932,30.4468 66.5082,30.4468 L71.4272,30.4468 L72.1692,31.1888 L72.1692,49.6778 C72.1692,51.2708 72.0172,52.8288 71.7402,54.3438 L73.7712,54.3438 C73.8652,53.7878 73.9442,53.2278 74.0062,52.6628 C74.1002,51.8128 74.6842,51.0788 75.5102,50.8558 C75.5242,50.8518 75.5392,50.8488 75.5532,50.8448 C76.9192,50.4668 78.2812,51.4288 78.3102,52.8458 L78.3392,54.3438 L80.3402,54.3438 L80.1992,47.2358 C80.8492,46.1048 81.2262,44.7988 81.2262,43.4038 C81.2262,41.9008 80.7872,40.5018 80.0412,39.3138 L79.8452,29.4198 C79.8312,28.6818 79.7912,27.9508 79.7282,27.2248 C79.6322,26.1398 81.0912,25.7088 81.6052,26.6698 C84.5992,32.2638 86.3012,38.6458 86.3012,45.4218 C86.3012,48.4888 85.9412,51.4728 85.2832,54.3438 L87.3352,54.3438 C88.3472,49.6988 88.6092,44.7778 87.9052,39.6948 C85.1502,19.8008 68.3332,4.4278 48.2692,3.5418 C24.2982,2.4828 4.4572,21.6788 4.4572,45.4218 C4.4572,68.5368 23.2642,87.3438 46.3792,87.3438 C47.3512,87.3438 48.3112,87.2988 49.2652,87.2328 C49.2562,87.1038 49.2462,86.9748 49.2462,86.8438 L49.2462,85.2288 Z"/>
      <g transform="translate(99 33.343)">
        <mask id="b" fill="white">
          <use xlink:href="#a"/>
        </mask>
        <path fill="#B9BBBE" d="M3.5177,1.7036 C4.5857,1.7036 5.4547,2.5726 5.4547,3.6406 C5.4547,4.7086 4.5857,5.5786 3.5177,5.5786 C2.4497,5.5786 1.5807,4.7086 1.5807,3.6406 C1.5807,2.5726 2.4497,1.7036 3.5177,1.7036 M0.5807,3.6406 C0.5807,5.2606 1.8977,6.5786 3.5177,6.5786 C5.1377,6.5786 6.4557,5.2606 6.4557,3.6406 C6.4557,2.0216 5.1377,0.7036 3.5177,0.7036 C1.8977,0.7036 0.5807,2.0216 0.5807,3.6406" mask="url(#b)"/>
      </g>
      <path fill="#B9BBBE" d="M95.4118,26.6417 L95.4118,26.6417 C96.4818,26.6417 97.3488,27.5087 97.3488,28.5787 C97.3488,28.8547 97.5728,29.0787 97.8498,29.0787 C98.1258,29.0787 98.3498,28.8547 98.3498,28.5787 C98.3498,27.5087 99.2168,26.6417 100.2868,26.6417 C100.5628,26.6417 100.7868,26.4177 100.7868,26.1417 C100.7868,25.8657 100.5628,25.6417 100.2868,25.6417 C99.2168,25.6417 98.3498,24.7747 98.3498,23.7047 L98.3498,23.7037 C98.3498,23.4277 98.1258,23.2037 97.8498,23.2037 C97.5728,23.2037 97.3488,23.4277 97.3488,23.7037 L97.3488,23.7047 C97.3488,24.7747 96.4818,25.6417 95.4118,25.6417 L95.4118,25.6417 C95.1358,25.6417 94.9118,25.8657 94.9118,26.1417 C94.9118,26.4177 95.1358,26.6417 95.4118,26.6417"/>
      <g transform="translate(4 .343)">
        <mask id="d" fill="white">
          <use xlink:href="#c"/>
        </mask>
        <path fill="#B9BBBE" d="M1.3771,2.8149 C1.5231,2.8149 1.6691,2.7509 1.7671,2.6279 L2.6981,1.4689 C2.8711,1.2539 2.8371,0.9399 2.6221,0.7669 C2.4071,0.5939 2.0921,0.6279 1.9191,0.8429 L0.9881,2.0019 C0.8151,2.2169 0.8491,2.5319 1.0651,2.7049 C1.1571,2.7789 1.2671,2.8149 1.3771,2.8149" mask="url(#d)"/>
      </g>
      <path fill="#B9BBBE" d="M1.2331 6.028L.3021 7.187C.1291 7.402.1631 7.716.3791 7.889.4711 7.964.5811 8 .6911 8 .8371 8 .9831 7.936 1.0811 7.813L2.0121 6.654C2.1851 6.439 2.1511 6.124 1.9361 5.951 1.7211 5.779 1.4061 5.813 1.2331 6.028M5.1593 5.8722C4.9543 6.0582 4.9383 6.3732 5.1243 6.5782L6.1293 7.6882C6.2283 7.7972 6.3643 7.8522 6.5003 7.8522 6.6193 7.8522 6.7403 7.8092 6.8353 7.7232 7.0403 7.5382 7.0563 7.2222 6.8703 7.0172L5.8653 5.9072C5.6803 5.7022 5.3633 5.6872 5.1593 5.8722"/>
      <g transform="translate(0 .343)">
        <mask id="f" fill="white">
          <use xlink:href="#e"/>
        </mask>
        <path fill="#B9BBBE" d="M1.5055,2.9131 C1.6255,2.9131 1.7455,2.8701 1.8405,2.7841 C2.0465,2.5981 2.0615,2.2821 1.8765,2.0781 L0.8705,0.9681 C0.6855,0.7621 0.3695,0.7481 0.1645,0.9331 C-0.0405,1.1181 -0.0565,1.4341 0.1295,1.6391 L1.1345,2.7481 C1.2335,2.8581 1.3695,2.9131 1.5055,2.9131" mask="url(#f)"/>
      </g>
      <path fill="#E3E7F8" d="M59.2458,87.8434 C56.2128,87.8434 53.7458,85.3764 53.7458,82.3434 L53.7458,65.5064 C52.3058,65.9404 51.2458,67.2634 51.2458,68.8434 L51.2458,86.8434 C51.2458,88.7734 52.8158,90.3434 54.7458,90.3434 L90.7458,90.3434 C92.3258,90.3434 93.6488,89.2834 94.0828,87.8434 L59.2458,87.8434 Z"/>
      <path fill="#C7D0F0" d="M63.7458,83.3434 C60.7128,83.3434 58.2458,80.8764 58.2458,77.8434 L58.2458,61.0064 C56.8058,61.4404 55.7458,62.7634 55.7458,64.3434 L55.7458,82.3434 C55.7458,84.2734 57.3158,85.8434 59.2458,85.8434 L95.2458,85.8434 C96.8258,85.8434 98.1488,84.7834 98.5828,83.3434 L63.7458,83.3434 Z"/>
      <path fill="#8EA1E1" d="M99.7458,56.3434 L63.7458,56.3434 C61.8158,56.3434 60.2458,57.9134 60.2458,59.8434 L60.2458,77.8434 C60.2458,79.7734 61.8158,81.3434 63.7458,81.3434 L99.7458,81.3434 C101.6758,81.3434 103.2458,79.7734 103.2458,77.8434 L103.2458,59.8434 C103.2458,57.9134 101.6758,56.3434 99.7458,56.3434"/>
      <path fill="#040405" d="M77.8053 71.13L77.8053 69.168C77.8053 68.491 77.2573 67.942 76.5793 67.942L73.5383 67.942C72.8623 67.942 72.3133 68.491 72.3133 69.168L72.3133 69.292C72.3133 69.969 72.8623 70.518 73.5383 70.518L75.2123 70.518 75.2123 71.13C75.2123 72.264 74.0063 72.822 72.8173 72.822 71.6293 72.822 70.4583 72.264 70.4583 71.13L70.4583 66.484C70.4583 65.35 71.5753 64.719 72.7273 64.719 73.4533 64.719 74.1883 64.951 74.6923 65.457 75.0543 65.819 75.6263 65.867 76.0783 65.628 76.7723 65.26 76.9743 64.318 76.4363 63.746 75.4413 62.689 74.1053 62.288 72.8003 62.288 70.3153 62.288 67.8293 63.693 67.8293 66.484L67.8293 71.13C67.8293 73.993 70.3323 75.416 72.8363 75.398 75.3203 75.38 77.8053 73.957 77.8053 71.13M82.2292 62.4684L82.0332 62.4684C81.3562 62.4684 80.8082 63.0174 80.8082 63.6944L80.8082 73.9924C80.8082 74.6694 81.3562 75.2174 82.0332 75.2174L82.2292 75.2174C82.9062 75.2174 83.4552 74.6694 83.4552 73.9924L83.4552 63.6944C83.4552 63.0174 82.9062 62.4684 82.2292 62.4684M89.7004 66.6271L89.7004 66.2691C89.7004 65.5921 90.2494 65.0441 90.9264 65.0441L94.4364 65.0441C95.1134 65.0441 95.6614 64.4951 95.6614 63.8181L95.6614 63.6941C95.6614 63.0171 95.1134 62.4681 94.4364 62.4681L88.2604 62.4681C87.5834 62.4681 87.0344 63.0171 87.0344 63.6941L87.0344 73.9921C87.0344 74.6691 87.5834 75.2171 88.2604 75.2171L88.4744 75.2171C89.1514 75.2171 89.7004 74.6691 89.7004 73.9921L89.7004 71.6891C89.7004 71.0121 90.2494 70.4641 90.9264 70.4641L93.6984 70.4641C94.3744 70.4641 94.9234 69.9151 94.9234 69.2381L94.9234 69.0781C94.9234 68.4011 94.3744 67.8521 93.6984 67.8521L90.9264 67.8521C90.2494 67.8521 89.7004 67.3041 89.7004 66.6271"/>
      <path fill="#040405" d="M95.2458,85.8434 L59.2458,85.8434 C57.3128,85.8434 55.7458,84.2764 55.7458,82.3434 L55.7458,64.3434 C55.7458,64.3274 55.7458,64.3114 55.7458,64.2964 C55.7678,62.6844 58.2458,62.7684 58.2458,64.3804 L58.2458,77.8434 C58.2458,80.8814 60.7078,83.3434 63.7458,83.3434 L95.2088,83.3434 C96.8208,83.3434 96.9048,85.8214 95.2928,85.8434 C95.2778,85.8434 95.2618,85.8434 95.2458,85.8434 L95.2458,85.8434 Z M90.7458,90.3434 L54.7458,90.3434 C52.8128,90.3434 51.2458,88.7764 51.2458,86.8434 L51.2458,68.8434 C51.2458,68.8274 51.2458,68.8114 51.2458,68.7964 C51.2678,67.1844 53.7458,67.2684 53.7458,68.8804 L53.7458,82.3434 C53.7458,85.3814 56.2078,87.8434 59.2458,87.8434 L90.7088,87.8434 C92.3208,87.8434 92.4048,90.3214 90.7928,90.3434 C90.7778,90.3434 90.7618,90.3434 90.7458,90.3434 L90.7458,90.3434 Z M103.2458,77.8434 C103.2458,79.7734 101.6758,81.3434 99.7458,81.3434 L63.7458,81.3434 C61.8158,81.3434 60.2458,79.7734 60.2458,77.8434 L60.2458,59.8434 C60.2458,57.9134 61.8158,56.3434 63.7458,56.3434 L99.7458,56.3434 C101.6758,56.3434 103.2458,57.9134 103.2458,59.8434 L103.2458,77.8434 Z M99.7458,54.3434 L87.3358,54.3434 L85.2838,54.3434 L80.3408,54.3434 L78.3398,54.3434 L73.7708,54.3434 L71.7398,54.3434 L63.7458,54.3434 C61.3868,54.3434 59.3738,55.8384 58.5958,57.9284 C58.3768,58.5174 57.9268,58.9724 57.3378,59.1914 C55.8398,59.7474 54.6498,60.9374 54.0938,62.4354 C53.8748,63.0244 53.4198,63.4744 52.8308,63.6934 C50.7408,64.4714 49.2458,66.4844 49.2458,68.8434 L49.2458,75.3954 L49.2458,77.4114 L49.2458,85.2294 L49.2458,86.8434 C49.2458,86.9744 49.2568,87.1034 49.2658,87.2334 C49.4668,90.0834 51.8448,92.3434 54.7458,92.3434 L90.7458,92.3434 C93.1048,92.3434 95.1178,90.8484 95.8958,88.7584 C96.1148,88.1694 96.5648,87.7144 97.1538,87.4954 C98.6518,86.9394 99.8418,85.7494 100.3978,84.2514 C100.6168,83.6624 101.0718,83.2124 101.6608,82.9934 C103.7508,82.2154 105.2458,80.2024 105.2458,77.8434 L105.2458,59.8434 C105.2458,56.8054 102.7838,54.3434 99.7458,54.3434 L99.7458,54.3434 Z"/>
    </g>
    <rect width="140" height="96"/>
  </g>
</svg>
